<svg width="70" height="70" viewBox="0 0 70 70" fill="none" xmlns="http://www.w3.org/2000/svg">
<path d="M11.0367 32.7261C11.445 32.3293 11.9957 32.1058 12.572 32.1081H30.051C31.1407 32.1081 32.025 31.2437 32.025 30.1786V23.2566C32.025 22.6978 32.2537 22.1618 32.6573 21.7672C33.0657 21.3704 33.6163 21.1492 34.1927 21.1492H41.2673C42.357 21.1492 43.2413 20.2848 43.2413 19.2197V12.8998C43.2413 11.8347 42.357 10.9703 41.2673 10.9703H34.2067C33.0073 10.968 32.0343 10.0192 32.032 8.84465V1.92949C32.032 0.864395 31.1477 0 30.058 0H2.00667C0.898333 0 0 0.878079 0 1.96142V8.21061C0 9.29396 0.898333 10.172 2.00667 10.172H30.6717C31.8757 10.172 32.851 11.1254 32.851 12.3022V19.8263C32.851 20.3874 32.6223 20.9279 32.2163 21.3248C31.8103 21.7216 31.2573 21.9429 30.6833 21.9429H13.1973C12.1077 21.9429 11.2233 22.8073 11.2233 23.8724V30.7944C11.2233 31.3554 10.997 31.8937 10.591 32.2905C10.185 32.6874 9.63433 32.9086 9.06033 32.9086H1.974C0.884333 32.9086 0 33.773 0 34.8381V41.1489C0 42.214 0.884333 43.0783 1.974 43.0783H9.06267C9.63667 43.0783 10.1873 43.2996 10.5933 43.6964C10.9993 44.0933 11.2257 44.6315 11.2257 45.1926V52.1191C11.2257 53.1842 12.11 54.0486 13.1997 54.0486H41.251C42.3593 54.0486 43.2577 53.1706 43.2577 52.0872V45.8426C43.2577 44.7592 42.3593 43.8812 41.251 43.8812H12.579C12.0027 43.8812 11.452 43.6599 11.0437 43.2631C10.6377 42.8685 10.4113 42.3326 10.4113 41.7738V34.2337C10.4067 33.6658 10.6307 33.1253 11.0367 32.7261Z" fill="white"/>
<path fill-rule="evenodd" clip-rule="evenodd" d="M58.7861 8.8466C58.7838 9.40994 59.0125 9.95047 59.4208 10.3496C59.8268 10.751 60.3798 10.9791 60.9585 10.9814H68.0191C69.1135 10.9814 70.0001 11.848 70.0001 12.9177V52.1074C70.0001 53.177 69.1135 54.0437 68.0191 54.0437H61.5791C60.4848 54.0437 59.5981 53.177 59.5981 52.1074V12.2928C59.6005 11.7295 59.3718 11.1889 58.9634 10.7898C58.5551 10.3929 58.0021 10.1694 57.4258 10.1694H50.3628C49.2684 10.1694 48.3818 9.30274 48.3818 8.23308V1.93829C48.3818 0.868628 49.2684 0.00195312 50.3628 0.00195312H56.8051C57.8994 0.00195312 58.7861 0.868628 58.7861 1.93829V8.8466ZM66.5441 18.645C66.6118 18.6427 66.6748 18.6177 66.7215 18.572C66.7658 18.5241 66.7891 18.4626 66.7891 18.3987V13.6913C66.7891 13.5499 66.9081 13.4336 67.0528 13.4336H67.8438C67.9885 13.4336 68.1075 13.5499 68.1075 13.6913V18.2984C68.1075 18.4398 67.9885 18.5561 67.8438 18.5561H66.9501C66.8825 18.5584 66.8195 18.5834 66.7728 18.6291C66.7261 18.677 66.6981 18.7385 66.6981 18.8047V19.6668C66.6981 19.8082 66.5791 19.9245 66.4345 19.9245H65.6435C65.4988 19.9245 65.3798 19.8082 65.3798 19.6668V18.7933C65.3775 18.7271 65.3518 18.6655 65.3051 18.6199C65.2561 18.5743 65.1931 18.547 65.1255 18.547H64.1408C64.0638 18.5447 63.9891 18.5743 63.9378 18.6291C63.8911 18.677 63.8631 18.7385 63.8631 18.8047V19.6919C63.8631 19.8333 63.7441 19.9496 63.5995 19.9496H62.8085C62.6638 19.9496 62.5448 19.8333 62.5448 19.6919V18.8184C62.5425 18.7522 62.5168 18.6906 62.4701 18.6427C62.4211 18.5971 62.3581 18.572 62.2928 18.5698H61.4458C61.3011 18.5698 61.1821 18.4534 61.1821 18.312V13.6913C61.1821 13.5499 61.3011 13.4336 61.4458 13.4336H62.2368C62.3815 13.4336 62.5005 13.5499 62.5005 13.6913V18.3964C62.5028 18.4626 62.5285 18.5241 62.5751 18.572C62.6241 18.6177 62.6871 18.6427 62.7525 18.645H63.7371C63.8048 18.6427 63.8678 18.6177 63.9145 18.572C63.9611 18.5241 63.9868 18.4626 63.9891 18.3987V13.6913C63.9891 13.5499 64.1081 13.4336 64.2528 13.4336H65.0438C65.1885 13.4336 65.3075 13.5499 65.3075 13.6913V18.3987C65.3098 18.4648 65.3355 18.5264 65.3821 18.572C65.4311 18.6177 65.4941 18.6427 65.5595 18.645H66.5441ZM65.2818 30.7553V29.8658C65.2818 29.7358 65.1745 29.6309 65.0415 29.6309H64.2155C64.0825 29.6309 63.9752 29.7358 63.9752 29.8658V30.7553C63.9752 30.8192 63.9495 30.8785 63.9028 30.9218L63.8842 30.9401C63.8398 30.9857 63.7768 31.0108 63.7138 31.0108H62.8038C62.6708 31.0108 62.5635 31.1157 62.5635 31.2457V34.5983C62.5635 34.7283 62.6708 34.8333 62.8038 34.8333H63.7138C63.7792 34.8333 63.8398 34.8583 63.8842 34.904L63.9028 34.9222C63.9495 34.9655 63.9752 35.0271 63.9752 35.0887V35.9782C63.9752 36.1082 64.0825 36.2131 64.2155 36.2131H65.0415C65.1745 36.2131 65.2818 36.1082 65.2818 35.9782V35.0887C65.2818 35.0248 65.3075 34.9655 65.3542 34.9222L65.3728 34.904C65.4172 34.8583 65.4802 34.8333 65.5432 34.8333H66.4532C66.5862 34.8333 66.6935 34.7283 66.6935 34.5983V31.2457C66.6935 31.1157 66.5862 31.0108 66.4532 31.0108H65.5432C65.4778 31.0108 65.4172 30.9857 65.3728 30.9401L65.3542 30.9218C65.3052 30.8785 65.2795 30.8169 65.2818 30.7553ZM65.3122 34.8538L65.2935 34.872C65.2492 34.9176 65.1862 34.9427 65.1232 34.9427H64.1292C64.0638 34.9427 64.0032 34.9176 63.9588 34.872L63.9402 34.8538C63.8935 34.8104 63.8678 34.7489 63.8678 34.6873V31.1636C63.8678 31.0997 63.8935 31.0404 63.9402 30.9971L63.9588 30.9788C64.0032 30.9332 64.0662 30.9081 64.1292 30.9081H65.1232C65.1885 30.9081 65.2492 30.9332 65.2935 30.9788L65.3122 30.9971C65.3588 31.0404 65.3845 31.102 65.3845 31.1636V34.6873C65.3845 34.7489 65.3588 34.8104 65.3122 34.8538ZM65.2422 24.0274L65.2655 24.0046C65.3052 23.9589 65.3262 23.9019 65.3239 23.8403V21.7626C65.3239 21.6349 65.4289 21.5322 65.5595 21.5322H66.4019C66.5325 21.5322 66.6375 21.6349 66.6375 21.7626V23.7605C66.6375 23.8882 66.5325 23.9909 66.4019 23.9909H65.4802C65.4195 23.9909 65.3589 24.0137 65.3145 24.057L65.2912 24.0798C65.2492 24.1232 65.2235 24.1802 65.2235 24.2417V25.2179C65.2235 25.2772 65.2469 25.3365 65.2912 25.3798L65.3145 25.4026C65.3589 25.4437 65.4172 25.4688 65.4802 25.4688H66.4019C66.5325 25.4688 66.6375 25.5714 66.6375 25.6991V27.7974C66.6375 27.9251 66.5325 28.0278 66.4019 28.0278H65.5595C65.4289 28.0278 65.3239 27.9251 65.3239 27.7974V25.6193C65.3239 25.56 65.3005 25.5007 65.2562 25.4574L65.2329 25.4346C65.1885 25.3935 65.1302 25.3684 65.0672 25.3684H64.1455C64.0149 25.3684 63.9099 25.4711 63.9099 25.5988V27.7974C63.9099 27.9251 63.8049 28.0278 63.6742 28.0278H62.8319C62.7012 28.0278 62.5962 27.9251 62.5962 27.7974V21.7649C62.5962 21.6372 62.7012 21.5345 62.8319 21.5345H63.6742C63.8049 21.5345 63.9099 21.6372 63.9099 21.7649V23.8631C63.9099 23.9909 64.0149 24.0935 64.1455 24.0935H65.0765C65.1372 24.0935 65.1979 24.0707 65.2422 24.0274ZM65.2822 38.9412V38.0722C65.2822 37.9308 65.1632 37.8145 65.0185 37.8145H64.2275C64.0828 37.8145 63.9638 37.9308 63.9638 38.0722V38.9412C63.9638 39.0073 63.9358 39.0689 63.8892 39.1168C63.8402 39.1624 63.7772 39.1875 63.7095 39.1898H62.8252C62.6805 39.1898 62.5615 39.3061 62.5615 39.4475V44.1617C62.5615 44.3031 62.6805 44.4195 62.8252 44.4195H63.6162C63.7608 44.4195 63.8798 44.3031 63.8798 44.1617V39.3608C63.8798 39.2947 63.9078 39.2331 63.9545 39.1852C64.0035 39.1396 64.0665 39.1145 64.1342 39.1122H65.1165C65.1842 39.1122 65.2472 39.1396 65.2962 39.1852C65.3428 39.2331 65.3685 39.2947 65.3708 39.3608V44.164C65.3708 44.3054 65.4898 44.4217 65.6345 44.4217H66.4255C66.5702 44.4217 66.6892 44.3054 66.6892 44.164V39.4498C66.6892 39.3084 66.5702 39.1921 66.4255 39.1921H65.5342C65.4665 39.1921 65.4035 39.1647 65.3545 39.1191C65.3055 39.0712 65.2798 39.0073 65.2822 38.9412ZM65.3542 47.3069L65.3682 47.3206C65.4126 47.3662 65.4756 47.3936 65.5409 47.3936H66.4322C66.5676 47.3936 66.6773 47.5008 66.6773 47.6331V52.3496C66.6773 52.4819 66.5676 52.5891 66.4322 52.5891H65.6179C65.4826 52.5891 65.3729 52.4819 65.3729 52.3496V48.7164L65.3402 48.7483C65.2936 48.7939 65.2679 48.8555 65.2679 48.9194V49.7997C65.2679 49.932 65.1582 50.0392 65.0229 50.0392H64.2086C64.0732 50.0392 63.9636 49.932 63.9636 49.7997V48.9171C63.9636 48.8532 63.9379 48.7917 63.8912 48.746L63.8586 48.7141V52.361C63.8586 52.4933 63.7489 52.6005 63.6136 52.6005H62.8109C62.6756 52.6005 62.5659 52.4933 62.5659 52.361V47.6308C62.5659 47.4985 62.6756 47.3913 62.8109 47.3913H63.7162C63.7816 47.3913 63.8446 47.3662 63.8912 47.3206L63.9052 47.3069C63.9519 47.2613 63.9776 47.1997 63.9776 47.1359V46.2532C63.9776 46.1209 64.0872 46.0137 64.2226 46.0137H65.0369C65.1722 46.0137 65.2819 46.1209 65.2819 46.2532V47.1359C65.2819 47.1997 65.3076 47.2613 65.3542 47.3069ZM65.1372 48.7575C65.2026 48.7575 65.2656 48.7324 65.3122 48.6867C65.3659 48.6411 65.3939 48.575 65.3962 48.5043V47.535C65.3962 47.4711 65.3706 47.4095 65.3239 47.3639L65.3076 47.348C65.2609 47.3024 65.1979 47.2773 65.1326 47.2773H64.1432C64.0779 47.2773 64.0149 47.3024 63.9682 47.348L63.9519 47.3639C63.9052 47.4095 63.8796 47.4711 63.8796 47.535V48.4997C63.8796 48.5636 63.9052 48.6252 63.9519 48.6708L63.9682 48.6867C64.0149 48.7324 64.0779 48.7575 64.1432 48.7575H65.1372Z" fill="white"/>
<path d="M61.9685 62.7715L63.4035 61.7383H58.5991V67.9465H63.4035V66.9133H59.9711V65.3236H62.8972V64.2905H59.9711V62.7715H61.9685Z" fill="white"/>
<path d="M54.9735 64.1582H53.3051V62.7715H55.9675L57.4025 61.7383H51.9331V67.9488H54.7961C56.4015 67.9488 57.3231 67.2372 57.3231 65.9987C57.3231 64.8105 56.4901 64.1582 54.9735 64.1582ZM54.7355 66.9133H53.3051V65.1913H54.7355C55.6058 65.1913 56.0118 65.4787 56.0118 66.0512C56.0118 66.6373 55.5825 66.9133 54.7355 66.9133Z" fill="white"/>
<path d="M67.2935 61.7383H64.6802V67.9488H66.0498V66.1903H67.2935C68.9618 66.1903 70.0002 65.3328 70.0002 63.962C70.0002 62.589 68.9641 61.7383 67.2935 61.7383ZM67.2655 65.1549H66.0498V62.7715H67.2655C68.1428 62.7715 68.6281 63.1957 68.6281 63.962C68.6281 64.7284 68.1428 65.1549 67.2655 65.1549Z" fill="white"/>
<path d="M49.5834 66.6022C49.231 66.7915 48.8227 66.8919 48.4004 66.8919C47.1637 66.8919 46.2677 66.0298 46.2677 64.8415C46.2677 63.6532 47.1637 62.7911 48.4004 62.7911C48.867 62.7911 49.287 62.9189 49.6464 63.172L50.6287 62.4627L50.5634 62.408C49.9894 61.9153 49.2217 61.6553 48.3444 61.6553C47.3924 61.6553 46.529 61.9678 45.913 62.538C45.2924 63.1104 44.9517 63.9155 44.9517 64.8073C44.9517 65.7013 45.2924 66.5201 45.9107 67.1108C46.5314 67.7038 47.3924 68.03 48.3374 68.03C49.3244 68.03 50.1877 67.6924 50.7734 67.0812C50.323 66.755 49.8867 66.4426 49.8867 66.4426L49.5834 66.6022Z" fill="white"/>
<path d="M41.7762 64.8406C41.7762 64.5259 41.7482 64.2157 41.6922 63.9169L40.5559 64.7357C40.5559 64.7699 40.5582 64.8064 40.5582 64.8406C40.5582 67.0278 38.7382 68.8091 36.4982 68.8091C34.2605 68.8091 32.4382 67.0301 32.4382 64.8406C32.4382 62.6534 34.2582 60.8721 36.4982 60.8721C37.3475 60.8721 38.1339 61.1276 38.7872 61.5655L39.8139 60.8265C38.9085 60.1104 37.7535 59.6816 36.4982 59.6816C33.5839 59.6816 31.2202 61.992 31.2202 64.8406C31.2202 67.6892 33.5839 69.9996 36.4982 69.9996C39.4149 69.9996 41.7762 67.6915 41.7762 64.8406Z" fill="white"/>
<path d="M40.6745 61.6865C40.9241 62.0013 41.1365 62.3457 41.3068 62.7129L36.4978 66.1773L34.4888 64.9457V63.4632L36.4978 64.6948L40.6745 61.6865Z" fill="white"/>
</svg>
