<svg width="359" height="159" viewBox="0 0 359 159" fill="none" xmlns="http://www.w3.org/2000/svg">
<path fill-rule="evenodd" clip-rule="evenodd" d="M238.116 65.5831L316.778 65.3464L320.934 65.3344C313.478 72.9423 305.869 80.3778 298.143 87.7127H280.302L269.854 98.9303L256.341 98.8837L247.23 109.301L185.891 109.439L182.535 99.8546L181.723 97.5347H184.179H232.011L236.841 95.4764C242.281 93.1591 248.51 88.3939 248.293 81.4484C248.077 74.5378 243.964 70.97 237.598 68.9879L226.776 65.6176L238.116 65.5831ZM34.1973 65.2395L112.86 65.4762L124.201 65.5103L113.378 68.8806C109.48 70.0944 107.478 71.2582 106.245 72.4339C104.506 74.2443 102.632 78.1427 102.506 81.7327C102.408 83.696 103.251 86.143 104.383 88.0415C105.467 89.7786 106.86 91.1578 108.494 92.3102C110.211 93.522 112.082 94.4943 114.135 95.3691L118.966 97.4274H162.363H164.819L164.007 99.7472L161.06 108.163L160.651 109.333L159.416 109.329L104.538 109.195L103.746 109.194L103.228 108.601L95.985 100.319L94.635 98.776L81.8803 98.8196L81.1219 98.8223L80.6046 98.2668L72.7666 89.8512L70.6741 87.6047H53.5235H52.833L52.3226 87.1206L43.4594 78.705L41.8125 77.1411H41.7178L41.203 76.6154L40.4605 75.8579L40.2981 75.7035H40.3101L32.9562 68.1997L30.0425 65.2266L34.1973 65.2395Z" fill="white"/>
<path fill-rule="evenodd" clip-rule="evenodd" d="M238.116 65.0188L316.778 64.7823L320.934 64.7703L322.283 64.7663L321.337 65.7312C317.607 69.5368 313.838 73.3004 310.036 77.0289C306.229 80.7631 302.392 84.4584 298.533 88.1226L298.367 88.2799H298.143H280.547L270.269 99.316L270.101 99.4963L269.854 99.4952L256.597 99.4491L247.655 109.673L247.487 109.866L247.23 109.866L185.891 110.004L185.49 110.005L185.357 109.625L182.001 100.041L181.189 97.7207L180.926 96.9679H181.723H184.179H231.899L236.619 94.956C239.591 93.6903 242.801 91.6811 245.005 88.981C246.714 86.8879 247.819 84.3734 247.728 81.4642C247.625 78.1587 246.595 75.6581 244.835 73.7532C243.058 71.8301 240.521 70.4907 237.43 69.5284L226.607 66.1583L223.094 65.0644L226.775 65.0524L238.116 65.0188ZM316.778 65.9116L238.116 66.1482L230.457 66.1712L237.766 68.4472C241.039 69.4662 243.744 70.9032 245.668 72.9864C247.61 75.0875 248.745 77.828 248.858 81.4329C248.957 84.644 247.75 87.4049 245.882 89.6935C243.546 92.5545 240.175 94.6711 237.062 95.9965L232.233 98.0549L232.123 98.1015H232.011H184.179H182.52L183.068 99.6684L186.291 108.874L246.973 108.737L255.916 98.5115L256.085 98.318L256.341 98.3187L269.608 98.3648L279.887 87.3271L280.056 87.1458H280.301H297.919C301.728 83.5279 305.505 79.8887 309.243 76.2228C312.719 72.8142 316.168 69.3759 319.584 65.9032L316.778 65.9116ZM34.1971 64.6753L112.86 64.9119L124.2 64.9459L127.882 64.9579L124.369 66.0518L113.546 69.4219C111.629 70.0187 110.184 70.6007 109.071 71.1752C107.989 71.7343 107.224 72.2849 106.645 72.8348C105.768 73.7503 104.851 75.2371 104.161 76.9511C103.553 78.4656 103.127 80.1459 103.07 81.7515V81.7608C103.027 82.6298 103.186 83.6132 103.48 84.6019V84.6045C103.806 85.7007 104.297 86.7944 104.863 87.745C105.383 88.5788 105.978 89.3263 106.638 90.0028C107.298 90.6809 108.029 91.292 108.819 91.8492C109.66 92.4421 110.538 92.9774 111.456 93.4699C112.379 93.965 113.345 94.42 114.356 94.8505L119.078 96.8623H162.363H164.819H165.616L165.353 97.6152L164.54 99.9351L161.594 108.351L161.184 109.52L161.051 109.9L160.651 109.899L159.416 109.895L104.538 109.762L103.746 109.76L103.489 109.76L103.321 109.568L102.803 108.975L95.5596 100.693L94.3792 99.3438L81.8826 99.3864L81.124 99.3891L80.8754 99.3901L80.7075 99.2099L80.1906 98.6543L72.3526 90.2388L70.4287 88.1736H53.5236H52.8328H52.6091L52.4431 88.0164L51.9328 87.5323L43.0699 79.1164L41.5883 77.71H41.4822L41.3151 77.5396L40.7999 77.0139L40.0671 76.2659L39.9083 76.1151L38.8818 75.1384H38.9623L32.5526 68.598L29.639 65.625L28.6934 64.6602L30.0419 64.6641L34.1971 64.6753ZM112.86 66.0412L34.1971 65.8045L31.3907 65.7965L33.3584 67.8043L40.7122 75.3081L41.6567 76.2715L41.9538 76.5754H42.0366L42.2022 76.7327L43.8492 78.2961L52.7122 86.7122L53.057 87.0389H53.5236H70.674H70.9194L71.0883 87.2204L73.181 89.467L81.019 97.8824L81.3682 98.2577L81.878 98.2564H81.8807L94.6355 98.2129L94.8914 98.2122L95.0607 98.4058L96.4104 99.9489L103.654 108.231L104.004 108.631L104.539 108.632L159.417 108.765L160.25 108.768L160.527 107.978L163.473 99.5627L164.022 97.9956H162.363H118.967H118.854L118.745 97.9492L113.914 95.8908C112.872 95.4475 111.875 94.9778 110.921 94.4656C109.962 93.9512 109.045 93.3925 108.168 92.7747C107.326 92.1805 106.542 91.524 105.828 90.7908C105.112 90.056 104.466 89.2449 103.903 88.342L103.899 88.3327C103.284 87.3012 102.75 86.1136 102.397 84.9247C102.069 83.8236 101.892 82.7117 101.942 81.7071C102.004 79.9591 102.461 78.1495 103.112 76.5299C103.857 74.6783 104.865 73.0553 105.838 72.0428L105.856 72.0251C106.509 71.4033 107.36 70.7862 108.554 70.1698C109.725 69.5654 111.23 68.9576 113.211 68.3408L120.52 66.0648L112.86 66.0412Z" fill="#1B1918"/>
<path fill-rule="evenodd" clip-rule="evenodd" d="M316.778 67.0864L238.422 67.3231C246.793 69.9299 247.777 72.5392 248.914 75.502H308.531L316.778 67.0864ZM34.1973 66.9795L112.86 67.2162C104.489 69.823 103.299 72.4323 102.108 75.3951H42.4446L34.1973 66.9795ZM97.2949 99.1743H162.363L159.416 107.59L104.538 107.456L97.2949 99.1743ZM74.0423 88.6651L102.626 88.6512C104.834 92.6432 109.148 95.1389 113.453 96.9729L81.8803 97.0809L74.0423 88.6651ZM44.6603 77.4436H101.592C100.466 80.249 100.206 83.0534 101.489 85.8593H53.5235L44.6603 77.4436ZM253.681 99.2813H184.179L187.125 107.697L246.437 107.669L253.681 99.2813ZM276.933 88.7721L248.274 88.9116C246.066 92.9036 241.828 95.2457 237.523 97.0798L269.095 97.1878L276.933 88.7721ZM306.315 77.5506H249.38C250.61 80.3559 250.642 83.0074 249.533 85.9662H297.452L306.315 77.5506Z" fill="#1B1918"/>
<path fill-rule="evenodd" clip-rule="evenodd" d="M193.552 77.3335L173.106 117.683L152.661 77.3324L173.107 36.9824L193.552 77.3335Z" fill="white"/>
<path fill-rule="evenodd" clip-rule="evenodd" d="M194.057 77.5883L173.612 117.938L173.106 118.934L172.602 117.938L152.157 77.5872L152.028 77.3324L152.157 77.0776L172.602 36.7277L173.107 35.7314L173.612 36.7277L194.057 77.0788L194.186 77.3339L194.057 77.5883ZM173.107 116.432L192.918 77.3335L173.107 38.234L153.296 77.3324L173.107 116.432Z" fill="#1B1918"/>
<path fill-rule="evenodd" clip-rule="evenodd" d="M173.106 41.8984L191.06 77.3328L173.106 112.766L155.152 77.3323L173.106 41.8984Z" fill="#1B1918"/>
<path fill-rule="evenodd" clip-rule="evenodd" d="M115.974 64.4642H126.708H128.448V66.2038V74.311L139.337 64.887L139.842 64.4503L140.511 64.4642L151.712 64.6979L156.459 64.7968L152.777 67.7885L138.215 79.6209L152.788 93.423L166.444 64.4572H179.097L196.124 96.6095L196.37 96.8502V64.4572H209.636L209.833 80.802L223.435 64.2236H236.974L236.714 97.461L222.705 97.4557L222.557 82.0263L209.833 97.4557L196.37 97.3894H181.636L178.833 91.7751H167.385L165.254 97.6305L141.41 97.6161H140.719L140.216 97.1452L128.455 86.1178V95.9211V97.6611L126.708 97.6606H115.974H114.228V95.9211V66.2039V64.4643L115.974 64.4642ZM172.993 78.8376L171.134 83.1484H175.048L172.993 78.8376Z" fill="white"/>
<path fill-rule="evenodd" clip-rule="evenodd" d="M115.974 63.8972H126.708H128.448H129.015V64.4642V66.2039V73.0728L138.967 64.4596L139.472 64.0227L139.636 63.8809L139.853 63.8849L140.521 63.8989L151.723 64.1325L156.469 64.2315L158.01 64.264L156.815 65.2347L153.133 68.2261L139.071 79.6524L152.609 92.4744L165.932 64.2153L166.085 63.8899H166.444H179.097H179.436L179.597 64.1933L195.803 94.7947V64.4568V63.8899H196.37H209.636H210.194L210.201 64.45L210.379 79.2457L222.999 63.8645L223.169 63.6562H223.435H236.974H237.543L237.539 64.2277L237.279 97.4649L237.275 98.0255L236.715 98.0251L222.705 98.0197H222.146L222.14 97.4596L222.008 83.5798L210.269 97.8137L210.098 98.0212L209.831 98.0199L196.937 97.956V98.1956L196.691 97.9549L196.37 97.9536V97.9563H181.637H181.286L181.129 97.6419L178.483 92.3421H167.78L165.785 97.8232L165.65 98.1956L165.254 98.1952L141.41 98.1808V98.1835H140.719H140.497L140.331 98.0285L139.829 97.5576L129.022 87.425V95.9215V97.6615V98.2265L128.455 98.2261L126.709 98.2259V98.2285H115.974H114.228H113.661V97.6616V95.9219V66.2049V64.4652V63.8983H114.228L115.974 63.8972ZM126.708 65.031H115.974H114.794V66.2039V95.9208V97.0936H115.974H126.708V97.0963L127.888 97.0965V95.9212V86.1181V84.8116L128.842 85.7063L140.603 96.7333L140.941 97.0493H141.41V97.052L164.857 97.066L166.853 91.583L166.989 91.2088H167.384H178.832H179.182L179.339 91.5233L181.986 96.8229H195.597L178.757 65.0243H166.802L153.3 93.6644L152.967 94.3712L152.398 93.8325L137.825 80.0305L137.358 79.5887L137.858 79.1824L152.42 67.3497L154.907 65.3292L151.701 65.2624L140.499 65.0288L140.049 65.0194L139.707 65.3147L128.818 74.7385L127.881 75.5496V74.3111V66.204V65.0312L126.708 65.031ZM196.937 65.0244V96.8272L209.567 96.89L222.121 81.6676L223.107 80.4721L223.122 82.0217L223.264 96.8915L236.154 96.8955L236.405 64.7903H223.7L210.269 81.1601L209.287 82.3575L209.268 80.8083L209.078 65.0239L196.937 65.0244ZM173.019 80.2087L171.995 82.5819H174.15L173.019 80.2087ZM170.613 82.9249L172.472 78.614L172.967 77.4669L173.505 78.594L175.56 82.9049L175.946 83.7156H175.048H171.133H170.272L170.613 82.9249Z" fill="#1B1918"/>
<path fill-rule="evenodd" clip-rule="evenodd" d="M115.974 66.2032H126.709V78.1188L140.477 66.2032L151.678 66.4369L135.576 79.5208L152.845 95.8759H141.41L126.709 82.0909V96.3431H115.974V66.2032ZM198.117 66.2032V96.1095H208.851L224.253 77.1841L224.429 96.3392L234.988 96.3432L235.221 65.9697H224.253L208.151 85.5955L207.918 66.2033L198.117 66.2032ZM153.963 95.9629L167.547 66.2032H178.047L193.683 95.6421H182.715L179.915 90.0348H166.146L163.99 95.9971L153.963 95.9629ZM172.914 74.6144L168.48 84.8944H177.814L172.914 74.6144Z" fill="#1B1918"/>
<path fill-rule="evenodd" clip-rule="evenodd" d="M0.206055 53.1947L1.84072 51.5597L5.28725 55.0066C5.61752 54.6049 5.77032 54.2639 5.74752 53.9847C5.72485 53.7058 5.50419 53.0851 5.08392 52.1293C4.54646 50.9134 4.34313 50.0271 4.47087 49.4727C4.59553 48.9182 5.0366 48.2659 5.791 47.5118C5.82846 47.4741 5.90593 47.3929 6.02273 47.2685L7.23138 48.4771L6.99365 48.7035C6.66032 49.0369 6.45619 49.3238 6.38525 49.5612C6.31299 49.7989 6.31339 50.0513 6.38792 50.3156C6.46165 50.5813 6.66725 51.0696 7.00619 51.7861C7.18539 52.1653 7.31206 52.5065 7.3854 52.8099C7.45566 53.1135 7.42687 53.4967 7.29887 53.9563C7.76674 53.6963 8.2754 53.6022 8.82607 53.6774C9.37647 53.753 10.0798 53.9356 10.9321 54.2225L14.2585 55.3385L12.3369 57.2601L9.277 56.1345C9.23126 56.1194 9.14473 56.0925 9.01086 56.057C8.96406 56.0437 8.76792 55.9871 8.42619 55.8797C7.81926 55.6911 7.39672 55.6155 7.16272 55.6495C6.92912 55.6839 6.67286 55.8382 6.39166 56.1118L9.93846 59.6585L8.30379 61.2931L0.206055 53.1947ZM13.0225 48.6831L11.2313 49.6258C10.9134 48.8555 10.8518 48.1529 11.0446 47.5116C11.2411 46.8709 11.7601 46.2181 12.609 45.5549C13.3818 44.9509 14.0282 44.5949 14.549 44.4822C15.0679 44.3714 15.5154 44.3941 15.8885 44.5555C16.2622 44.7173 16.7422 45.1711 17.3299 45.9237L18.8886 47.9578C19.3369 48.5315 19.6959 48.9349 19.9658 49.1635C20.2326 49.3918 20.5671 49.6042 20.9613 49.797L19.2489 51.1349C19.1146 51.0537 18.9249 50.9274 18.6842 50.7539C18.5761 50.6723 18.5027 50.6213 18.4638 50.5978C18.3927 51.1172 18.2446 51.5775 18.0217 51.9853C17.7975 52.3909 17.4937 52.7431 17.1115 53.0417C16.4387 53.5674 15.7645 53.7998 15.0937 53.7382C14.4194 53.6762 13.8649 53.3653 13.4283 52.8062C13.1407 52.4381 12.9714 52.0397 12.9215 51.6115C12.8713 51.1837 12.9469 50.7694 13.1441 50.3681C13.3418 49.9666 13.6971 49.4728 14.2058 48.8892C14.8945 48.1076 15.3438 47.5262 15.5529 47.1532L15.4183 46.9809C15.1571 46.6467 14.8914 46.4751 14.6155 46.4603C14.3418 46.4483 13.9771 46.6177 13.5213 46.9741C13.2126 47.2151 13.0202 47.4636 12.9434 47.7201C12.8645 47.9745 12.8917 48.2946 13.0225 48.6831ZM16.4327 48.2795C16.2694 48.5251 15.9878 48.8879 15.5869 49.3665C15.1881 49.8442 14.9538 50.1897 14.8801 50.4029C14.7814 50.7399 14.8261 51.0306 15.0181 51.2762C15.2085 51.5205 15.4614 51.6577 15.7799 51.6928C16.0982 51.7284 16.3965 51.6376 16.6761 51.4192C16.989 51.1746 17.2053 50.8401 17.3295 50.4149C17.4183 50.0951 17.4051 49.7974 17.2933 49.5191C17.2245 49.3362 17.0253 49.0381 16.7018 48.6238L16.4327 48.2795ZM22.3658 44.6134L21.5461 43.4429C21.8563 43.2255 22.0683 43.0445 22.1802 42.9073C22.2933 42.7663 22.3578 42.575 22.3738 42.3327C22.3919 42.089 22.3295 41.8653 22.1889 41.6646C22.0407 41.4525 21.8227 41.3089 21.5407 41.2359C21.2565 41.1653 20.9598 41.2386 20.6499 41.4559C20.4118 41.6226 20.233 41.8233 20.117 42.0573C20.0013 42.2916 20.0002 42.6533 20.1166 43.145L18.3641 43.8865C18.1002 43.1798 18.1142 42.5025 18.4071 41.8513C18.7038 41.2011 19.1725 40.6482 19.8169 40.197C20.6363 39.6233 21.4013 39.3677 22.1141 39.4282C22.8273 39.489 23.3829 39.8031 23.7805 40.3711C24.0281 40.725 24.1365 41.0847 24.1043 41.4525C24.0738 41.8225 23.9195 42.253 23.6429 42.7459C24.2401 42.5293 24.7609 42.4741 25.2069 42.5758C25.6498 42.6786 26.0161 42.9364 26.3067 43.3517C26.6767 43.8801 26.7482 44.5076 26.5199 45.237C26.2938 45.9645 25.713 46.655 24.7843 47.3051C23.1614 48.4413 21.7263 48.5025 20.4765 47.4891L21.9103 46.0359C22.641 46.5174 23.3137 46.5439 23.9234 46.1173C24.2597 45.8818 24.4679 45.6025 24.5451 45.285C24.6241 44.9655 24.5818 44.6863 24.4135 44.4463C24.2283 44.1817 23.9759 44.0494 23.6606 44.0453C23.3421 44.0413 23.0125 44.1606 22.6715 44.3994L22.3658 44.6134ZM27.4927 38.6296L25.5765 39.2805C25.383 38.4697 25.4318 37.766 25.7227 37.1628C26.0169 36.5608 26.6314 35.9971 27.5737 35.4751C28.4315 34.9994 29.1255 34.7487 29.6581 34.7189C30.1875 34.691 30.6259 34.7831 30.9695 35.0013C31.3131 35.2193 31.7159 35.7427 32.179 36.5777L33.4001 38.8306C33.7531 39.4675 34.0449 39.9218 34.2755 40.1902C34.5034 40.4574 34.8005 40.7193 35.1599 40.9714L33.2591 42.0251C33.139 41.9238 32.9715 41.7697 32.761 41.5606C32.6669 41.4631 32.6026 41.4011 32.5675 41.3717C32.4163 41.8735 32.1978 42.3052 31.9141 42.6729C31.629 43.0385 31.2742 43.3389 30.8497 43.5739C30.1033 43.9878 29.4006 44.1118 28.7479 43.9462C28.0914 43.7795 27.5925 43.3858 27.2486 42.7651C27.0226 42.357 26.9175 41.9368 26.9349 41.5062C26.9522 41.0757 27.0921 40.6785 27.3495 40.3126C27.6077 39.9472 28.0355 39.5147 28.6293 39.0181C29.4317 38.3537 29.9665 37.8499 30.2314 37.5142L30.1255 37.3226C29.9199 36.9518 29.6841 36.741 29.4138 36.6836C29.1459 36.6284 28.7589 36.7387 28.2527 37.0195C27.9099 37.2093 27.6813 37.4243 27.5653 37.6658C27.4478 37.9047 27.4243 38.2252 27.4927 38.6296ZM30.9242 38.7642C30.7246 38.9814 30.3898 39.2956 29.9189 39.7057C29.4502 40.115 29.1647 40.4195 29.0586 40.6183C28.9086 40.9362 28.9066 41.2303 29.0578 41.5027C29.2079 41.7738 29.4366 41.9487 29.7457 42.0334C30.0545 42.1181 30.3633 42.0754 30.6735 41.9034C31.0209 41.7106 31.2866 41.414 31.4759 41.0134C31.6135 40.7117 31.6475 40.4154 31.5803 40.1233C31.541 39.9317 31.3909 39.6058 31.1362 39.1466L30.9242 38.7642ZM32.8063 32.8306L34.7646 31.8333L36.1433 34.5394L38.9398 33.1145L37.561 30.4083L39.5259 29.4071L43.2919 36.7987L41.3269 37.7999L39.7449 34.6947L36.9483 36.1197L38.5305 39.2249L36.5726 40.2223L32.8063 32.8306ZM49.9155 27.6667L48.0538 28.8387C47.8254 28.4653 47.5499 28.2253 47.2283 28.1198C46.9063 28.0137 46.5563 28.0374 46.1757 28.1913C45.6666 28.3969 45.3347 28.7352 45.1738 29.2057C45.0138 29.6785 45.0997 30.3253 45.4315 31.1465C45.8001 32.0585 46.2138 32.6421 46.6723 32.8942C47.1311 33.1462 47.6173 33.1682 48.1342 32.9591C48.5221 32.8027 48.7919 32.5669 48.9506 32.2467C49.1086 31.927 49.129 31.4787 49.0145 30.9038L51.1518 30.4345C51.3147 31.4353 51.1949 32.2921 50.795 32.997C50.3963 33.7049 49.7019 34.2555 48.7102 34.6562C47.5851 35.1109 46.545 35.1199 45.5906 34.6799C44.6341 34.2411 43.9027 33.3919 43.3951 32.1359C42.883 30.8675 42.8195 29.7427 43.2038 28.765C43.5894 27.7838 44.3543 27.0635 45.4987 26.6009C46.4357 26.2225 47.2619 26.1242 47.9785 26.3034C48.6929 26.4841 49.3395 26.9387 49.9155 27.6667ZM50.6075 24.7394L52.6511 23.9549L53.8655 27.1186C54.1902 26.9513 54.3913 26.7544 54.4673 26.528C54.5421 26.3049 54.5701 25.8658 54.5497 25.2169C54.5178 24.3521 54.6191 23.7534 54.8482 23.4201C55.0773 23.0864 55.4442 22.8225 55.9495 22.6286C56.1041 22.5693 56.3805 22.4774 56.7731 22.3553L57.3011 23.7096C56.761 23.9166 56.4345 24.0991 56.3241 24.2587C56.2134 24.4238 56.1737 24.8049 56.2027 25.4019C56.2383 26.2082 56.0641 26.7804 55.6815 27.1161C56.3959 27.0502 57.1586 27.3998 57.969 28.1717C58.0105 28.2125 58.0566 28.2518 58.1081 28.2957L60.0726 29.9918L57.8695 30.8374L55.9899 28.991C55.6067 28.6183 55.3134 28.3969 55.1121 28.3258C54.9086 28.2582 54.6573 28.2805 54.3561 28.3962L55.6241 31.6994L53.5802 32.4841L50.6075 24.7394ZM58.5771 21.7317L60.5942 21.1153L62.1174 26.0978L63.8227 20.1281L65.8829 19.4983L68.3082 27.4313L66.2911 28.0481L64.7403 22.976L63.0195 29.0485L61.0027 29.6649L58.5771 21.7317ZM68.0758 18.6687L70.1031 18.0875L71.5394 23.0961L73.3486 17.157L75.4194 16.5629L77.7061 24.5373L75.6783 25.1185L74.2163 20.0203L72.3898 26.0619L70.3623 26.6431L68.0758 18.6687ZM72.2023 13.9818L73.2299 13.687C73.3659 14.3835 73.2813 14.9871 72.9745 15.4943C72.6653 16.0046 72.1799 16.3515 71.5133 16.5427C70.8469 16.7341 70.2509 16.6966 69.7214 16.4271C69.1926 16.1595 68.8007 15.6923 68.5445 15.0306L69.5747 14.7354C69.7105 15.0819 69.9122 15.3122 70.1806 15.4354C70.4482 15.5556 70.7873 15.5582 71.1973 15.4408C71.6074 15.3228 71.8935 15.141 72.0567 14.8971C72.2189 14.6507 72.2685 14.3483 72.2023 13.9818ZM82.2789 14.783L84.4199 14.2887L85.1029 17.2481L88.161 16.5421L87.4779 13.5826L89.6266 13.0865L91.493 21.1697L89.3439 21.6655L88.5601 18.2701L85.5021 18.9761L86.2859 22.3715L84.1449 22.8659L82.2789 14.783ZM94.0929 14.673L92.069 14.7C92.1355 13.8692 92.3993 13.2149 92.8627 12.7312C93.3283 12.2493 94.0869 11.9034 95.1443 11.6982C96.1074 11.5107 96.8447 11.4869 97.3603 11.623C97.8729 11.7598 98.261 11.9831 98.5202 12.2965C98.7799 12.6106 99.0014 13.2327 99.1835 14.1699L99.6489 16.6898C99.7879 17.4049 99.9247 17.9269 100.061 18.2534C100.195 18.5777 100.397 18.919 100.661 19.2697L98.5274 19.6843C98.4446 19.5509 98.3327 19.3525 98.1971 19.0887C98.1382 18.967 98.0958 18.8879 98.0721 18.849C97.7726 19.2795 97.4318 19.6227 97.0481 19.885C96.6641 20.1443 96.2337 20.3205 95.757 20.413C94.9195 20.5759 94.2131 20.4769 93.6431 20.1174C93.0706 19.7562 92.7179 19.2274 92.5826 18.5309C92.4934 18.0728 92.5237 17.6407 92.6733 17.2363C92.8226 16.8323 93.0785 16.4978 93.4365 16.2294C93.7947 15.9615 94.3351 15.683 95.0533 15.3938C96.0219 15.0102 96.6861 14.6961 97.0421 14.4587L97.0001 14.2437C96.9193 13.8276 96.7605 13.5543 96.5213 13.4159C96.2831 13.2807 95.8814 13.2664 95.3133 13.3768C94.9286 13.4516 94.6443 13.5853 94.4595 13.7789C94.2739 13.9701 94.1526 14.2675 94.0929 14.673ZM97.3146 15.8614C97.0575 16.0065 96.6418 16.2016 96.0674 16.4461C95.4955 16.6906 95.1301 16.8921 94.9675 17.0485C94.7263 17.3043 94.6338 17.5833 94.6935 17.8894C94.7525 18.1933 94.9157 18.4303 95.1837 18.6067C95.4513 18.7825 95.7578 18.8374 96.1063 18.7697C96.4959 18.6937 96.8402 18.4938 97.1441 18.1714C97.3686 17.9269 97.4922 17.6556 97.5183 17.3569C97.5402 17.1626 97.4983 16.8062 97.3981 16.2907L97.3146 15.8614ZM100.806 10.7496L102.97 10.3682L104.102 16.7911L107.185 16.2477L106.052 9.82434L108.216 9.44299L109.349 15.8662L110.202 15.7158L110.89 19.6152L109.144 19.9231L108.764 17.7699L102.246 18.9194L100.806 10.7496ZM110.65 9.14063L112.733 8.81059L113.548 13.9569L116.068 8.28223L118.195 7.94556L119.493 16.1388L117.41 16.4688L116.58 11.2303L114.031 17.0042L111.947 17.3338L110.65 9.14063ZM120.892 11.5946C120.816 10.8705 120.923 10.149 121.206 9.43315C121.494 8.71875 121.945 8.1462 122.563 7.7218C123.181 7.295 123.894 7.03766 124.703 6.9526C125.949 6.8214 127.015 7.11969 127.899 7.84729C128.783 8.57476 129.288 9.55675 129.418 10.7949C129.549 12.0414 129.255 13.1182 128.538 14.0249C127.818 14.9315 126.847 15.4467 125.625 15.5753C124.866 15.655 124.13 15.5605 123.407 15.2906C122.684 15.0207 122.109 14.5747 121.682 13.9519C121.257 13.3287 120.992 12.5441 120.892 11.5946ZM123.143 11.4764C123.229 12.2957 123.489 12.9013 123.924 13.295C124.357 13.6893 124.86 13.8563 125.43 13.7966C126 13.7365 126.455 13.4689 126.793 12.9934C127.135 12.5179 127.262 11.8663 127.175 11.0363C127.09 10.2302 126.831 9.62742 126.398 9.23315C125.968 8.83862 125.468 8.67115 124.898 8.73128C124.327 8.79102 123.87 9.05928 123.529 9.53475C123.185 10.0106 123.057 10.6596 123.143 11.4764ZM130.649 6.42834L132.838 6.23674L133.103 9.26233L136.23 8.98901L135.965 5.96313L138.162 5.77116L138.885 14.0352L136.688 14.2274L136.384 10.7555L133.258 11.0293L133.561 14.5011L131.372 14.6923L130.649 6.42834ZM142.359 7.87899L140.347 7.65902C140.515 6.84262 140.856 6.2254 141.375 5.8018C141.896 5.38033 142.691 5.12942 143.766 5.05448C144.744 4.98608 145.479 5.05183 145.974 5.24996C146.466 5.44836 146.824 5.71714 147.043 6.05994C147.263 6.40314 147.407 7.04756 147.473 7.99996L147.628 10.5579C147.679 11.2843 147.751 11.8195 147.847 12.1601C147.94 12.4983 148.099 12.8616 148.318 13.2418L146.15 13.3933C146.084 13.2509 145.998 13.0403 145.895 12.7618C145.851 12.6339 145.819 12.5505 145.8 12.5089C145.451 12.8997 145.07 13.1986 144.657 13.4122C144.245 13.6227 143.796 13.7451 143.312 13.7791C142.461 13.8385 141.771 13.6541 141.25 13.2282C140.726 12.7999 140.44 12.2318 140.39 11.5239C140.358 11.0583 140.44 10.6331 140.638 10.2502C140.836 9.8674 141.13 9.56649 141.518 9.34395C141.906 9.12169 142.477 8.91074 143.225 8.71167C144.233 8.4486 144.931 8.21794 145.313 8.02568L145.298 7.80754C145.268 7.3842 145.143 7.09355 144.923 6.92729C144.703 6.76409 144.306 6.70087 143.729 6.74101C143.338 6.76861 143.039 6.86646 142.832 7.03646C142.625 7.20313 142.468 7.48405 142.359 7.87899ZM145.412 9.45129C145.14 9.56396 144.703 9.70716 144.103 9.87956C143.505 10.0526 143.118 10.2079 142.938 10.3433C142.667 10.5681 142.542 10.8338 142.564 11.1449C142.585 11.4537 142.718 11.7088 142.963 11.9162C143.207 12.1234 143.505 12.2153 143.858 12.1903C144.255 12.1627 144.621 12.0062 144.962 11.7231C145.214 11.5077 145.37 11.2534 145.432 10.9605C145.478 10.77 145.479 10.4117 145.443 9.88741L145.412 9.45129ZM150.328 4.67395L157.676 4.41728L157.965 12.7077L155.78 12.7841L155.552 6.2738L152.562 6.37809L152.692 10.101C152.726 11.0499 152.639 11.7174 152.434 12.1086C152.229 12.4971 151.995 12.7565 151.733 12.8854C151.473 13.0146 151.049 13.091 150.46 13.1114C150.111 13.1234 149.648 13.0917 149.072 13.0184L149.016 11.4034C149.064 11.4021 149.186 11.4007 149.384 11.4042C149.613 11.4122 149.79 11.4135 149.915 11.4095C150.211 11.3989 150.392 11.2966 150.451 11.0974C150.513 10.9005 150.527 10.3554 150.496 9.46541L150.328 4.67395ZM160.092 4.22982L162.287 4.19169L162.347 7.63595L164.552 7.59782C165.415 7.58262 166.08 7.63261 166.546 7.74967C167.012 7.86687 167.401 8.12913 167.715 8.53739C168.031 8.94513 168.192 9.42515 168.202 9.97168C168.216 10.7718 167.951 11.3814 167.409 11.7934C166.867 12.2062 166.046 12.4231 164.948 12.4419L160.237 12.5243L160.092 4.22982ZM162.407 11.0969L164.455 11.061C165.094 11.0503 165.503 10.9362 165.678 10.7254C165.856 10.5141 165.942 10.2642 165.937 9.97929C165.931 9.57942 165.768 9.30463 165.456 9.15796C165.144 9.01436 164.594 8.94633 163.802 8.96033L162.37 8.98527L162.407 11.0969ZM169.938 3.9294H172.136V6.96659H175.274V3.9294H177.48V12.225H175.274V8.73995H172.136V12.225H169.938V3.9294ZM179.706 3.9294H181.901V7.37447H184.103C184.967 7.37447 185.629 7.43607 186.085 7.55847C186.541 7.67861 186.925 7.9478 187.239 8.3586C187.554 8.769 187.711 9.25434 187.711 9.81181C187.711 10.6119 187.437 11.217 186.884 11.6195C186.333 12.0225 185.503 12.225 184.399 12.225H179.706V3.9294ZM181.901 10.8357H183.938C184.471 10.8357 184.855 10.7503 185.095 10.5851C185.335 10.4169 185.455 10.1478 185.455 9.77181C185.455 9.37194 185.3 9.09713 184.989 8.94779C184.679 8.79846 184.125 8.72367 183.322 8.72367H181.901V10.8357ZM188.962 3.9294H191.156V12.225H188.962V3.9294ZM193.587 4.2926L195.695 4.36633L195.513 9.57369L199.069 4.48421L201.222 4.55941L200.932 12.8498L198.824 12.7765L199.009 7.47567L195.405 12.657L193.297 12.5834L193.587 4.2926ZM198.96 1.11019L200.028 1.14766C199.942 1.8518 199.675 2.39982 199.226 2.78756C198.775 3.17729 198.206 3.35714 197.513 3.33301C196.82 3.30874 196.265 3.08954 195.845 2.66927C195.424 2.25167 195.196 1.68621 195.157 0.977539L196.228 1.01501C196.25 1.38688 196.371 1.66808 196.588 1.86808C196.805 2.06488 197.127 2.17221 197.553 2.18701C197.979 2.20208 198.308 2.11741 198.539 1.93608C198.769 1.75194 198.909 1.47952 198.96 1.11019ZM207.994 4.9858L210.097 5.13314L209.734 10.3307L213.466 5.36861L215.615 5.5186L215.036 13.7944L212.932 13.6469L213.302 8.35632L209.519 13.4085L207.415 13.2614L207.994 4.9858ZM225.02 8.89567L222.829 9.09489C222.794 8.65836 222.658 8.31966 222.42 8.07926C222.181 7.83886 221.858 7.701 221.449 7.665C220.902 7.6174 220.453 7.76819 220.096 8.11446C219.738 8.46286 219.521 9.07819 219.444 9.96033C219.359 10.9403 219.462 11.6483 219.757 12.081C220.051 12.5138 220.474 12.7542 221.03 12.8026C221.446 12.8393 221.794 12.7515 222.08 12.5383C222.366 12.3253 222.588 11.9352 222.747 11.3709L224.864 11.9231C224.555 12.8887 224.06 13.5978 223.383 14.0445C222.707 14.4939 221.838 14.6697 220.772 14.5763C219.563 14.4705 218.632 14.0063 217.982 13.1809C217.329 12.3554 217.063 11.267 217.181 9.91768C217.3 8.55515 217.754 7.52408 218.541 6.82715C219.33 6.12795 220.338 5.83354 221.568 5.94088C222.575 6.02888 223.355 6.31647 223.912 6.8018C224.467 7.28713 224.837 7.98554 225.02 8.89567ZM234.005 10.0106L231.811 10.1717C231.785 9.73434 231.654 9.39343 231.42 9.14929C231.185 8.90436 230.865 8.76113 230.457 8.71806C229.911 8.66059 229.459 8.80341 229.096 9.14368C228.733 9.48608 228.505 10.0971 228.413 10.9782C228.31 11.9563 228.401 12.6661 228.688 13.1038C228.974 13.5414 229.393 13.7894 229.948 13.8477C230.364 13.8911 230.713 13.8098 231.003 13.6015C231.293 13.3933 231.521 13.0074 231.69 12.4458L233.798 13.035C233.472 13.995 232.964 14.6954 232.279 15.1299C231.595 15.5677 230.723 15.7279 229.66 15.6165C228.453 15.4894 227.53 15.009 226.894 14.1726C226.255 13.3358 226.009 12.2429 226.15 10.8958C226.293 9.53553 226.765 8.51249 227.564 7.82943C228.365 7.14423 229.378 6.86716 230.606 6.99609C231.611 7.10196 232.387 7.40315 232.935 7.89795C233.481 8.39262 233.839 9.09755 234.005 10.0106ZM236.973 7.82381L244.234 8.97396L242.937 17.1675L240.777 16.8255L241.796 10.3913L238.841 9.92301L238.258 13.6023C238.11 14.5401 237.898 15.1787 237.622 15.5238C237.346 15.8659 237.067 16.0761 236.785 16.1523C236.506 16.2298 236.075 16.2238 235.493 16.1316C235.148 16.0768 234.699 15.9574 234.148 15.7756L234.401 14.1792C234.448 14.1872 234.569 14.2089 234.762 14.2501C234.986 14.3015 235.158 14.337 235.282 14.3567C235.575 14.4029 235.772 14.337 235.868 14.1526C235.967 13.9711 236.084 13.439 236.223 12.5591L236.973 7.82381ZM250.07 15.7786L252.162 16.5186C251.744 17.2598 251.203 17.7843 250.531 18.0913C249.862 18.4011 249.077 18.4738 248.179 18.3154C246.758 18.0649 245.79 17.4174 245.271 16.3674C244.863 15.5295 244.759 14.5415 244.958 13.4095C245.197 12.0546 245.738 11.0561 246.583 10.4143C247.425 9.77221 248.388 9.54649 249.469 9.73743C250.685 9.95169 251.573 10.5223 252.135 11.4502C252.695 12.3774 252.814 13.6658 252.493 15.3174L247.075 14.3623C246.978 15.0061 247.063 15.5355 247.334 15.949C247.605 16.3647 247.991 16.6169 248.488 16.7046C248.826 16.7642 249.126 16.7223 249.389 16.5791C249.653 16.4335 249.882 16.1678 250.07 15.7786ZM250.578 13.6152C250.673 12.9852 250.597 12.4813 250.347 12.1014C250.097 11.7217 249.75 11.493 249.309 11.4152C248.836 11.3316 248.417 11.4362 248.049 11.7265C247.682 12.0134 247.447 12.4541 247.348 13.0455L250.578 13.6152ZM260.349 20.4727L254.182 19.2739L253.765 21.4202L252.016 21.0801L252.776 17.1698L253.658 17.3414C254.107 17.0046 254.535 16.4253 254.945 15.6029C255.354 14.7803 255.788 13.3189 256.241 11.2231L262.814 12.501L261.574 18.8801L262.448 19.0498L261.688 22.9605L259.932 22.6187L260.349 20.4727ZM259.441 18.4654L260.344 13.857L257.738 13.3502C257.214 15.5848 256.556 17.0515 255.768 17.7515L259.441 18.4654ZM264.069 16.8512C264.232 16.1422 264.568 15.4943 265.07 14.9097C265.574 14.3279 266.187 13.9334 266.91 13.7334C267.633 13.5309 268.39 13.5195 269.183 13.7025C270.404 13.9845 271.315 14.6134 271.914 15.5893C272.512 16.5647 272.67 17.6578 272.39 18.871C272.108 20.0922 271.48 21.0143 270.506 21.6379C269.531 22.2613 268.446 22.4325 267.248 22.1558C266.504 21.9842 265.839 21.655 265.243 21.1648C264.648 20.6742 264.249 20.0653 264.048 19.337C263.849 18.6098 263.854 17.7814 264.069 16.8512ZM266.235 17.4722C266.05 18.275 266.098 18.9318 266.382 19.4462C266.663 19.9598 267.084 20.2816 267.642 20.4104C268.201 20.5397 268.718 20.4342 269.193 20.0951C269.671 19.7565 270.003 19.1821 270.191 18.369C270.373 17.5792 270.325 16.9245 270.044 16.4109C269.765 15.898 269.347 15.5767 268.788 15.4478C268.229 15.319 267.71 15.4233 267.232 15.7619C266.752 16.0998 266.42 16.6717 266.235 17.4722ZM275.081 15.4985L279.744 16.6611C280.698 16.8991 281.372 17.2514 281.759 17.7186C282.148 18.1865 282.254 18.7711 282.079 19.4723C281.968 19.9225 281.738 20.2803 281.396 20.5494C281.051 20.8182 280.67 20.9596 280.247 20.9721C280.769 21.248 281.119 21.6043 281.3 22.0481C281.478 22.491 281.513 22.934 281.402 23.3792C281.246 24.0052 280.889 24.4575 280.333 24.7338C279.776 25.0101 279.046 25.0369 278.146 24.8123L273.074 23.5478L275.081 15.4985ZM276.395 19.3768L277.767 19.7188C278.429 19.884 278.929 19.918 279.265 19.8257C279.602 19.7338 279.815 19.5068 279.905 19.1469C279.989 18.8082 279.911 18.5334 279.673 18.3226C279.432 18.1086 278.962 17.9144 278.26 17.7394L276.889 17.3974L276.395 19.3768ZM275.562 22.7197L277.244 23.1392C277.849 23.29 278.31 23.3252 278.626 23.25C278.939 23.1717 279.145 22.9423 279.239 22.5647C279.337 22.1717 279.244 21.8598 278.964 21.6305C278.683 21.401 278.083 21.1742 277.162 20.9449L276.072 20.673L275.562 22.7197ZM285.595 20.9668L283.796 20.0403C284.244 19.3381 284.785 18.8842 285.421 18.6745C286.058 18.4677 286.89 18.5187 287.92 18.8335C288.859 19.1205 289.521 19.4454 289.912 19.8079C290.3 20.1693 290.538 20.5487 290.62 20.9471C290.702 21.3462 290.606 21.9993 290.326 22.9125L289.554 25.356C289.341 26.0525 289.217 26.5778 289.184 26.9301C289.15 27.2793 289.168 27.6754 289.237 28.1089L287.158 27.4736C287.148 27.3168 287.142 27.0891 287.146 26.7925C287.152 26.6571 287.152 26.5677 287.148 26.5222C286.682 26.762 286.219 26.9047 285.758 26.9558C285.297 27.0049 284.834 26.9585 284.37 26.8163C283.554 26.5669 282.977 26.1477 282.642 25.5626C282.306 24.9749 282.243 24.3426 282.45 23.6642C282.587 23.2174 282.816 22.8501 283.138 22.5636C283.46 22.2772 283.843 22.1017 284.285 22.0329C284.727 21.9645 285.335 21.9721 286.105 22.0541C287.14 22.1701 287.874 22.2045 288.3 22.1622L288.364 21.9529C288.488 21.5473 288.476 21.2313 288.33 20.997C288.183 20.7657 287.835 20.5642 287.281 20.3949C286.906 20.2803 286.593 20.2653 286.339 20.3495C286.085 20.4307 285.839 20.6368 285.595 20.9668ZM287.882 23.5285C287.587 23.5365 287.128 23.5134 286.506 23.4593C285.887 23.4067 285.469 23.4129 285.252 23.4749C284.919 23.5874 284.707 23.7905 284.616 24.0886C284.525 24.3846 284.558 24.6706 284.712 24.9518C284.865 25.233 285.11 25.4254 285.45 25.529C285.83 25.645 286.228 25.6299 286.647 25.4882C286.96 25.3774 287.197 25.1961 287.36 24.9447C287.471 24.7833 287.601 24.4491 287.754 23.9469L287.882 23.5285ZM292.678 20.4346L299.776 22.8785L299.198 24.5554L296.687 23.6906L294.564 29.8577L292.489 29.143L294.612 22.9764L292.101 22.1111L292.678 20.4346ZM303.678 30.453L305.591 31.5785C305.04 32.2264 304.408 32.6379 303.69 32.811C302.974 32.9875 302.19 32.9093 301.338 32.5824C299.991 32.0653 299.164 31.2447 298.855 30.1154C298.615 29.2147 298.701 28.2253 299.113 27.1523C299.606 25.8677 300.328 24.9907 301.279 24.5218C302.228 24.0519 303.216 24.0145 304.242 24.408C305.395 24.8506 306.157 25.5801 306.532 26.5982C306.904 27.6149 306.775 28.9026 306.145 30.4627L301.009 28.4914C300.791 29.1049 300.774 29.6407 300.961 30.0981C301.147 30.5581 301.478 30.8793 301.949 31.0599C302.27 31.1831 302.572 31.1994 302.858 31.1091C303.145 31.0161 303.419 30.7991 303.678 30.453ZM304.59 28.4264C304.804 27.8258 304.825 27.3168 304.652 26.8965C304.479 26.4758 304.182 26.1851 303.764 26.0245C303.316 25.8525 302.885 25.8752 302.468 26.0896C302.053 26.3012 301.738 26.6889 301.528 27.251L304.59 28.4264ZM310.399 27.1141L317.115 30.1045L313.741 37.6831L311.743 36.7935L314.393 30.8422L311.66 29.6257L310.144 33.0287C309.758 33.8957 309.388 34.4581 309.032 34.7201C308.678 34.979 308.354 35.1097 308.061 35.1105C307.772 35.1131 307.357 34.9955 306.819 34.7559C306.5 34.6138 306.098 34.3822 305.612 34.0636L306.269 32.5873C306.313 32.6069 306.424 32.6594 306.6 32.7494C306.802 32.8571 306.96 32.9361 307.075 32.9871C307.345 33.1073 307.552 33.0945 307.693 32.9414C307.836 32.7917 308.086 32.308 308.449 31.4942L310.399 27.1141ZM319.47 31.4549L321.425 32.4511L319.861 35.5209L321.826 36.5221C322.596 36.9145 323.16 37.2709 323.516 37.5925C323.872 37.9153 324.092 38.3292 324.178 38.8368C324.266 39.3458 324.182 39.8448 323.934 40.332C323.571 41.0448 323.051 41.459 322.379 41.5686C321.707 41.6778 320.88 41.4842 319.902 40.9858L315.703 38.8465L319.47 31.4549ZM318.29 38.605L320.114 39.5348C320.684 39.825 321.099 39.9169 321.352 39.8126C321.608 39.7094 321.802 39.5296 321.931 39.2756C322.113 38.9192 322.099 38.6005 321.892 38.3246C321.684 38.0513 321.23 37.7328 320.524 37.3733L319.248 36.7231L318.29 38.605ZM333.72 42.2723L331.677 41.4548C331.845 41.0504 331.877 40.6867 331.773 40.3643C331.67 40.0417 331.445 39.7725 331.097 39.5549C330.631 39.2638 330.162 39.1942 329.687 39.3405C329.21 39.489 328.738 39.9389 328.269 40.6898C327.748 41.524 327.518 42.2019 327.584 42.7209C327.65 43.2402 327.918 43.6465 328.39 43.9417C328.745 44.1636 329.095 44.2433 329.447 44.1833C329.799 44.1231 330.173 43.8763 330.571 43.4458L332.207 44.8991C331.493 45.6191 330.73 46.0258 329.924 46.1169C329.117 46.2102 328.263 45.9721 327.356 45.4052C326.327 44.7622 325.708 43.9262 325.504 42.8955C325.296 41.8634 325.553 40.7726 326.271 39.6239C326.996 38.4641 327.869 37.7517 328.886 37.4878C329.906 37.2229 330.938 37.4182 331.985 38.0725C332.843 38.6081 333.408 39.2189 333.684 39.9037C333.958 40.5878 333.97 41.3785 333.72 42.2723ZM337.076 41.5402L338.801 42.8879L336.714 45.5586C337.025 45.7502 337.297 45.8213 337.53 45.7699C337.76 45.7189 338.151 45.517 338.697 45.1652C339.422 44.6924 339.987 44.4713 340.391 44.4954C340.795 44.5199 341.21 44.6991 341.636 45.0321C341.767 45.1342 341.988 45.3235 342.294 45.5975L341.406 46.7473C340.95 46.3913 340.625 46.2053 340.432 46.1925C340.233 46.1831 339.886 46.3452 339.39 46.6777C338.717 47.123 338.136 47.2689 337.652 47.1135C338.076 47.6922 338.169 48.5259 337.925 49.6178C337.911 49.6749 337.902 49.7346 337.891 49.8007L337.448 52.3587L335.589 50.9059L336.203 48.3437C336.326 47.8233 336.364 47.4578 336.321 47.2485C336.275 47.0394 336.126 46.8353 335.872 46.6365L333.693 49.425L331.968 48.0773L337.076 41.5402ZM343.647 46.8402L345.239 48.224L341.821 52.1562L347.787 50.4388L349.413 51.8522L343.97 58.113L342.378 56.729L345.858 52.7265L339.797 54.4847L338.205 53.101L343.647 46.8402ZM352.168 54.792L353.408 56.4985L349.192 59.561L355.393 59.2295L356.659 60.9726L349.947 65.8486L348.708 64.1422L352.998 61.0249L346.696 61.3745L345.457 59.6679L352.168 54.792ZM357.984 57.0665L358.612 57.9317C358.005 58.2975 357.408 58.4245 356.827 58.3095C356.242 58.1935 355.749 57.8561 355.342 57.2951C354.934 56.7343 354.765 56.1617 354.838 55.5717C354.908 54.9833 355.213 54.4553 355.747 53.9881L356.377 54.8551C356.098 55.1015 355.951 55.3699 355.927 55.6639C355.905 55.9565 356.019 56.2762 356.269 56.6209C356.52 56.9664 356.789 57.1731 357.074 57.243C357.361 57.3114 357.662 57.2537 357.984 57.0665Z" fill="white"/>
<path fill-rule="evenodd" clip-rule="evenodd" d="M17.3405 104.565L22.9186 109.589L21.7322 110.906L19.7582 109.129L15.394 113.976L13.7632 112.507L18.1273 107.66L16.1537 105.883L17.3405 104.565ZM23.7876 117.422L25.344 119.005C24.6436 119.488 23.9263 119.722 23.1885 119.703C22.4512 119.688 21.7141 119.41 20.9764 118.874C19.8092 118.026 19.2222 117.019 19.2158 115.848C19.2172 114.916 19.5564 113.982 20.2319 113.052C21.0407 111.939 21.9651 111.28 23.0052 111.073C24.0435 110.865 25.0076 111.084 25.8965 111.73C26.8954 112.455 27.4432 113.358 27.5414 114.438C27.6377 115.516 27.1805 116.727 26.168 118.071L21.7176 114.837C21.3474 115.373 21.1925 115.886 21.2545 116.377C21.3157 116.869 21.552 117.265 21.9598 117.561C22.238 117.763 22.526 117.857 22.8253 117.844C23.1265 117.829 23.4481 117.69 23.7876 117.422ZM25.1932 115.701C25.5545 115.176 25.7068 114.69 25.649 114.239C25.5904 113.789 25.3794 113.43 25.017 113.167C24.6285 112.885 24.206 112.795 23.7483 112.894C23.2921 112.992 22.888 113.285 22.54 113.773L25.1932 115.701ZM24.5869 121.07L29.424 119.115L29.2104 114.181L31.4577 115.641L31.4484 118.353L33.9874 117.283L36.1501 118.688L31.6513 120.45L31.8466 125.784L29.5877 124.317L29.5721 121.242L26.7432 122.47L24.5869 121.07ZM36.7986 118.993L38.7382 120.024L37.3126 122.706L40.0837 124.179L41.5094 121.498L43.4566 122.533L39.5623 129.858L37.6149 128.823L39.2512 125.745L36.48 124.272L34.8439 127.349L32.9038 126.317L36.7986 118.993ZM45.1672 123.242L47.0785 124.134L44.8765 128.856L50.1381 125.56L52.0909 126.471L48.585 133.989L46.6733 133.098L48.915 128.291L43.5727 131.652L41.6613 130.761L45.1672 123.242ZM53.478 126.941L55.5348 127.772L54.7919 129.611C54.6217 130.032 54.5333 130.358 54.5245 130.593C54.5179 130.829 54.6044 131.071 54.7907 131.316C54.9728 131.562 55.2529 131.759 55.6237 131.909C55.9869 132.055 56.4253 132.138 56.9412 132.156L58.2671 128.875L60.302 129.698L57.1941 137.389L55.1592 136.567L56.4 133.496C55.5205 133.388 54.8742 133.251 54.4588 133.084C53.836 132.832 53.331 132.472 52.9402 132.001C52.5513 131.533 52.3517 131.053 52.335 130.56C52.3208 130.068 52.4541 129.475 52.7346 128.78L53.478 126.941ZM64.6873 137.213L66.6194 138.306C66.0797 138.963 65.4547 139.386 64.7403 139.571C64.0275 139.76 63.2424 139.695 62.3852 139.384C61.0296 138.89 60.1879 138.084 59.8591 136.96C59.6035 136.064 59.672 135.073 60.065 133.993C60.5356 132.7 61.2423 131.811 62.1853 131.326C63.1257 130.84 64.1132 130.784 65.1454 131.16C66.3057 131.582 67.0809 132.299 67.4732 133.31C67.8629 134.32 67.7571 135.609 67.1543 137.181L61.985 135.299C61.7772 135.916 61.7696 136.452 61.9645 136.906C62.1588 137.363 62.4952 137.678 62.9684 137.851C63.2916 137.968 63.5942 137.979 63.8789 137.884C64.1638 137.786 64.4349 137.564 64.6873 137.213ZM65.5643 135.172C65.7668 134.567 65.7793 134.058 65.5993 133.641C65.419 133.223 65.117 132.938 64.6964 132.784C64.2452 132.62 63.8142 132.651 63.4016 132.872C62.99 133.091 62.6822 133.484 62.482 134.05L65.5643 135.172ZM76.1779 137.413L73.9986 137.114C74.0636 136.68 74.0066 136.32 73.8281 136.032C73.6501 135.744 73.3666 135.538 72.9762 135.411C72.4538 135.241 71.9818 135.287 71.5566 135.544C71.13 135.803 70.78 136.354 70.5062 137.196C70.2021 138.131 70.1447 138.845 70.334 139.332C70.5229 139.82 70.8812 140.15 71.4112 140.322C71.8094 140.451 72.1678 140.444 72.4948 140.301C72.8217 140.158 73.1256 139.827 73.407 139.313L75.346 140.327C74.8275 141.199 74.1849 141.778 73.4256 142.061C72.6656 142.347 71.7789 142.323 70.7618 141.992C69.6082 141.617 68.8056 140.956 68.3573 140.005C67.9064 139.054 67.892 137.933 68.3108 136.645C68.7333 135.344 69.4076 134.442 70.3305 133.94C71.2569 133.436 72.3053 133.376 73.4797 133.757C74.4412 134.07 75.1367 134.526 75.5705 135.124C76.0017 135.721 76.2047 136.485 76.1779 137.413ZM78.15 135.36L80.2647 135.927L79.3875 139.2C79.748 139.255 80.0269 139.214 80.2212 139.076C80.4125 138.94 80.6937 138.601 81.0588 138.063C81.5406 137.345 81.9749 136.92 82.3562 136.785C82.7376 136.65 83.1897 136.652 83.7128 136.792C83.8723 136.834 84.1493 136.923 84.5393 137.055L84.1708 138.46C83.6118 138.311 83.24 138.266 83.0573 138.33C82.8706 138.399 82.6148 138.684 82.2875 139.185C81.8423 139.857 81.3645 140.218 80.8577 140.264C81.4749 140.631 81.8861 141.362 82.0882 142.463C82.0976 142.52 82.1121 142.58 82.1276 142.645L82.7203 145.172L80.4408 144.561L80.005 141.963C79.9146 141.436 79.8073 141.085 79.686 140.908C79.5617 140.734 79.3452 140.605 79.0333 140.521L78.1176 143.939L76.0029 143.372L78.15 135.36ZM85.7333 137.233L87.7794 137.744L86.519 142.799L91.0552 138.561L93.1461 139.082L91.1392 147.131L89.0921 146.621L90.3753 141.474L85.7725 145.793L83.7264 145.283L85.7333 137.233ZM94.9735 139.531L97.0364 139.969L95.9532 145.066L100.339 140.671L102.446 141.12L100.721 149.234L98.6581 148.795L99.761 143.607L95.3117 148.084L93.2489 147.645L94.9735 139.531ZM100.817 137.33L101.863 137.553C101.656 138.231 101.298 138.724 100.789 139.028C100.277 139.334 99.6847 139.412 99.0067 139.268C98.3285 139.124 97.8199 138.811 97.4789 138.325C97.1372 137.84 97.0107 137.244 97.0953 136.539L98.1437 136.762C98.1007 137.132 98.1705 137.43 98.3497 137.664C98.5296 137.896 98.8279 138.058 99.2451 138.147C99.6624 138.235 100.001 138.209 100.259 138.07C100.518 137.929 100.704 137.685 100.817 137.33ZM107.847 141.987L110.147 142.393L111.078 148.538L114.01 143.074L116.247 143.469L111.978 150.823L111.209 152.154C110.936 152.596 110.691 152.929 110.476 153.151C110.258 153.373 110.025 153.541 109.774 153.658C109.524 153.774 109.229 153.85 108.888 153.879C108.547 153.908 108.172 153.888 107.759 153.815C107.344 153.742 106.945 153.626 106.559 153.468L106.665 151.74C106.992 151.868 107.292 151.954 107.565 152.002C108.066 152.09 108.465 152.009 108.759 151.757C109.049 151.506 109.302 151.163 109.511 150.729L107.847 141.987ZM117.242 143.51L119.418 143.816L118.995 146.824L122.103 147.261L122.526 144.253L124.71 144.56L123.555 152.775L121.371 152.468L121.857 149.017L118.748 148.58L118.263 152.031L116.088 151.726L117.242 143.51ZM126.637 144.757L128.73 145.014L128.095 150.186L132.081 145.426L134.219 145.688L133.208 153.922L131.114 153.665L131.761 148.401L127.719 153.248L125.625 152.991L126.637 144.757ZM136.405 145.85L141.185 146.352C142.163 146.455 142.879 146.71 143.327 147.119C143.777 147.528 143.964 148.092 143.889 148.811C143.84 149.272 143.663 149.658 143.362 149.973C143.058 150.286 142.7 150.48 142.282 150.551C142.837 150.751 143.234 151.056 143.475 151.47C143.713 151.884 143.81 152.317 143.762 152.774C143.695 153.415 143.404 153.913 142.892 154.264C142.378 154.615 141.659 154.743 140.736 154.646L135.538 154.1L136.405 145.85ZM138.246 149.507L139.652 149.655C140.331 149.727 140.831 149.691 141.151 149.552C141.471 149.415 141.651 149.16 141.689 148.791C141.726 148.444 141.611 148.182 141.346 148.007C141.078 147.829 140.584 147.702 139.865 147.626L138.46 147.479L138.246 149.507ZM137.887 152.934L139.61 153.115C140.231 153.18 140.692 153.15 140.994 153.032C141.294 152.911 141.465 152.655 141.506 152.268C141.549 151.866 141.414 151.57 141.103 151.381C140.793 151.194 140.168 151.053 139.223 150.953L138.107 150.836L137.887 152.934ZM150.157 152.666L152.306 153.221C151.954 153.996 151.46 154.566 150.818 154.93C150.178 155.297 149.403 155.438 148.495 155.358C147.058 155.233 146.036 154.672 145.427 153.672C144.949 152.872 144.758 151.897 144.858 150.752C144.978 149.382 145.431 148.34 146.216 147.627C146.999 146.914 147.938 146.605 149.032 146.701C150.263 146.808 151.197 147.3 151.838 148.175C152.475 149.05 152.707 150.322 152.531 151.996L147.051 151.517C147.01 152.166 147.141 152.686 147.447 153.075C147.753 153.465 148.159 153.683 148.661 153.727C149.004 153.757 149.299 153.689 149.549 153.524C149.799 153.355 150.004 153.071 150.157 152.666ZM150.475 150.467C150.514 149.831 150.395 149.336 150.113 148.979C149.831 148.623 149.465 148.425 149.019 148.386C148.541 148.344 148.133 148.485 147.791 148.806C147.45 149.124 147.255 149.583 147.208 150.181L150.475 150.467ZM154.414 147.19L156.459 147.297L156.395 148.515C156.681 148.11 157.058 147.791 157.524 147.556C157.99 147.319 158.501 147.214 159.052 147.244C160.013 147.294 160.811 147.715 161.439 148.504C162.071 149.292 162.351 150.362 162.281 151.709C162.209 153.091 161.814 154.149 161.1 154.881C160.383 155.613 159.543 155.953 158.582 155.902C158.124 155.879 157.713 155.766 157.35 155.565C156.99 155.362 156.614 155.03 156.225 154.567L156.006 158.742L153.814 158.627L154.414 147.19ZM156.374 151.306C156.325 152.236 156.473 152.935 156.82 153.396C157.165 153.86 157.603 154.108 158.135 154.135C158.644 154.162 159.078 153.979 159.437 153.589C159.797 153.2 160.003 152.538 160.051 151.608C160.097 150.738 159.955 150.084 159.628 149.645C159.301 149.206 158.881 148.973 158.367 148.946C157.832 148.918 157.377 149.1 157 149.497C156.625 149.891 156.417 150.494 156.374 151.306ZM171.251 150.351L169.074 150.665C169.017 150.23 168.863 149.9 168.611 149.672C168.361 149.444 168.032 149.324 167.621 149.309C167.072 149.29 166.631 149.464 166.293 149.829C165.955 150.196 165.77 150.822 165.739 151.706C165.705 152.689 165.846 153.391 166.162 153.807C166.479 154.224 166.914 154.442 167.471 154.462C167.889 154.476 168.232 154.371 168.506 154.143C168.781 153.915 168.982 153.514 169.111 152.942L171.255 153.383C170.996 154.363 170.538 155.097 169.886 155.578C169.234 156.063 168.376 156.284 167.307 156.246C166.094 156.204 165.14 155.789 164.448 154.999C163.752 154.209 163.429 153.136 163.477 151.782C163.525 150.415 163.924 149.362 164.673 148.625C165.424 147.885 166.416 147.538 167.65 147.581C168.659 147.617 169.454 147.863 170.036 148.318C170.615 148.773 171.021 149.452 171.251 150.351ZM172.805 147.782L174.913 147.819L174.822 153.028L178.289 147.878L180.443 147.916L180.298 156.21L178.189 156.173L178.282 150.87L174.769 156.113L172.66 156.076L172.805 147.782ZM181.421 147.92L188.926 147.789L188.957 149.562L186.302 149.609L186.416 156.13L184.221 156.168L184.108 149.647L181.452 149.693L181.421 147.92ZM195.091 153.211L197.291 153.5C197.037 154.312 196.616 154.938 196.023 155.377C195.433 155.82 194.68 156.054 193.769 156.086C192.327 156.136 191.245 155.704 190.519 154.785C189.947 154.05 189.639 153.106 189.599 151.957C189.551 150.582 189.873 149.493 190.565 148.69C191.255 147.886 192.15 147.465 193.248 147.427C194.482 147.384 195.469 147.758 196.211 148.549C196.951 149.339 197.336 150.574 197.365 152.257L191.868 152.449C191.906 153.099 192.1 153.598 192.451 153.947C192.802 154.297 193.232 154.464 193.736 154.446C194.079 154.434 194.364 154.331 194.592 154.136C194.82 153.939 194.988 153.631 195.091 153.211ZM195.139 150.99C195.1 150.353 194.921 149.877 194.598 149.557C194.274 149.238 193.887 149.086 193.44 149.102C192.96 149.118 192.572 149.308 192.272 149.668C191.972 150.025 191.834 150.505 191.861 151.104L195.139 150.99ZM197.653 147.445L205.149 147.052L205.242 148.823L202.59 148.962L202.931 155.475L200.74 155.59L200.399 149.077L197.746 149.216L197.653 147.445ZM210.262 146.733L212.359 146.513L212.904 151.694L215.717 146.16L217.859 145.934L218.727 154.185L216.629 154.405L216.074 149.13L213.227 154.762L211.129 154.983L210.262 146.733ZM220.066 145.756L222.766 145.425L225.516 150.912L226.873 144.921L229.565 144.59L230.576 152.824L228.723 153.052L228.057 147.631L226.715 153.298L224.854 153.527L222.272 148.341L222.938 153.762L221.077 153.99L220.066 145.756ZM232.848 152.538L232.542 150.365L234.715 150.059L235.021 152.233L232.848 152.538ZM251.758 149.582L249.279 150.019L247.843 147.63L243.334 148.425L242.856 151.152L240.44 151.578L242.845 139.525L245.253 139.1L251.758 149.582ZM246.778 145.86L244.485 141.948L243.7 146.403L246.778 145.86ZM252.962 149.439L252.543 147.284L254.698 146.866L255.116 149.02L252.962 149.439ZM257.424 148.614L255.043 137.412L257.307 136.931L258.244 141.338L262.675 140.396L261.738 135.989L264 135.508L266.381 146.711L264.12 147.191L263.079 142.293L258.647 143.235L259.688 148.133L257.424 148.614ZM268.628 146.02L268.097 143.891L270.227 143.36L270.757 145.489L268.628 146.02ZM279.821 143.124L277.039 134.026L273.791 135.019L273.224 133.165L281.927 130.504L282.494 132.358L279.253 133.349L282.034 142.448L279.821 143.124ZM282.466 133.735L284.688 133.013L288.395 138.002L288.418 131.801L290.579 131.099L290.261 139.597L290.208 141.133C290.174 141.651 290.114 142.061 290.029 142.358C289.94 142.656 289.813 142.913 289.647 143.135C289.48 143.355 289.255 143.56 288.968 143.746C288.681 143.932 288.34 144.09 287.942 144.22C287.541 144.35 287.134 144.434 286.719 144.476L286.002 142.901C286.351 142.861 286.655 142.795 286.918 142.71C287.403 142.552 287.717 142.293 287.858 141.933C287.996 141.574 288.059 141.153 288.039 140.671L282.466 133.735ZM291.38 131.009L298.211 128.249L301.318 135.941L299.284 136.763L296.84 130.715L294.081 131.83L296.524 137.878L294.488 138.701L291.38 131.009ZM301.449 131.402C301.165 130.732 301.055 130.01 301.118 129.242C301.183 128.476 301.448 127.796 301.915 127.209C302.38 126.62 302.987 126.166 303.735 125.848C304.889 125.358 305.996 125.332 307.053 125.769C308.111 126.207 308.881 126.998 309.368 128.144C309.858 129.298 309.891 130.414 309.47 131.49C309.047 132.568 308.27 133.344 307.138 133.824C306.436 134.122 305.704 134.247 304.934 134.2C304.164 134.154 303.484 133.895 302.893 133.425C302.305 132.953 301.822 132.28 301.449 131.402ZM303.567 130.63C303.888 131.388 304.314 131.892 304.845 132.141C305.375 132.391 305.904 132.404 306.432 132.18C306.96 131.956 307.316 131.567 307.501 131.013C307.689 130.459 307.62 129.799 307.294 129.031C306.977 128.284 306.553 127.783 306.024 127.533C305.497 127.282 304.97 127.268 304.442 127.492C303.914 127.716 303.555 128.106 303.368 128.661C303.178 129.216 303.246 129.874 303.567 130.63ZM308.905 123.917L315.397 120.466L319.291 127.79L317.361 128.816L314.302 123.065L311.661 124.469L313.409 127.759C313.855 128.597 314.07 129.234 314.058 129.676C314.044 130.115 313.947 130.45 313.768 130.682C313.591 130.911 313.243 131.166 312.723 131.443C312.414 131.607 311.985 131.781 311.435 131.967L310.676 130.541C310.718 130.518 310.828 130.463 311.007 130.38C311.217 130.286 311.376 130.211 311.487 130.152C311.748 130.013 311.865 129.841 311.832 129.636C311.802 129.432 311.574 128.937 311.156 128.15L308.905 123.917ZM323.931 122.157L326.01 121.379C326.166 122.215 326.088 122.965 325.771 123.632C325.457 124.3 324.904 124.86 324.114 125.315C322.864 126.037 321.706 126.164 320.634 125.693C319.783 125.313 319.067 124.623 318.493 123.628C317.805 122.437 317.578 121.324 317.813 120.289C318.045 119.256 318.637 118.464 319.589 117.915C320.658 117.298 321.705 117.165 322.732 117.514C323.756 117.865 324.675 118.775 325.491 120.246L320.727 122.997C321.067 123.553 321.472 123.903 321.946 124.046C322.42 124.19 322.878 124.135 323.314 123.883C323.612 123.711 323.815 123.486 323.925 123.208C324.034 122.926 324.037 122.576 323.931 122.157ZM322.93 120.173C322.598 119.629 322.216 119.292 321.78 119.162C321.345 119.032 320.932 119.079 320.544 119.303C320.128 119.543 319.875 119.893 319.779 120.351C319.682 120.808 319.786 121.296 320.09 121.813L322.93 120.173ZM323.946 115.7L327.833 112.875C328.629 112.297 329.332 112.008 329.938 112.012C330.547 112.015 331.064 112.308 331.488 112.893C331.761 113.269 331.887 113.674 331.874 114.109C331.858 114.546 331.721 114.929 331.459 115.261C332.005 115.038 332.504 114.999 332.96 115.146C333.414 115.294 333.776 115.552 334.046 115.923C334.425 116.445 334.541 117.01 334.396 117.612C334.249 118.218 333.801 118.794 333.05 119.339L328.822 122.411L323.946 115.7ZM327.761 117.186L328.905 116.356C329.457 115.954 329.805 115.593 329.95 115.276C330.096 114.96 330.059 114.65 329.841 114.35C329.635 114.068 329.375 113.95 329.061 113.998C328.742 114.044 328.29 114.28 327.705 114.705L326.562 115.536L327.761 117.186ZM329.786 119.973L331.189 118.955C331.694 118.588 332.017 118.257 332.162 117.967C332.304 117.676 332.26 117.372 332.031 117.057C331.793 116.729 331.495 116.599 331.138 116.667C330.782 116.735 330.223 117.049 329.455 117.607L328.546 118.267L329.786 119.973ZM333.954 111.509L332.232 112.574C331.862 111.828 331.751 111.131 331.898 110.478C332.05 109.825 332.522 109.138 333.323 108.417C334.052 107.761 334.671 107.361 335.183 107.212C335.693 107.065 336.141 107.057 336.525 107.192C336.909 107.327 337.419 107.747 338.058 108.456L339.755 110.376C340.242 110.917 340.628 111.295 340.913 111.504C341.195 111.713 341.544 111.901 341.951 112.066L340.336 113.52C340.196 113.448 339.998 113.336 339.746 113.18C339.633 113.106 339.555 113.06 339.515 113.039C339.48 113.562 339.365 114.032 339.171 114.454C338.975 114.874 338.697 115.247 338.337 115.571C337.702 116.142 337.046 116.421 336.373 116.407C335.695 116.392 335.121 116.121 334.646 115.593C334.334 115.246 334.137 114.861 334.057 114.437C333.977 114.014 334.024 113.596 334.193 113.181C334.362 112.767 334.681 112.25 335.148 111.632C335.781 110.804 336.188 110.193 336.371 109.806L336.225 109.644C335.941 109.329 335.664 109.176 335.388 109.181C335.114 109.187 334.762 109.382 334.332 109.769C334.04 110.031 333.866 110.293 333.807 110.553C333.747 110.813 333.797 111.131 333.954 111.509ZM337.327 110.869C337.182 111.125 336.926 111.507 336.559 112.012C336.195 112.516 335.985 112.877 335.927 113.095C335.852 113.438 335.916 113.725 336.125 113.957C336.332 114.187 336.594 114.306 336.914 114.319C337.235 114.332 337.525 114.221 337.789 113.984C338.084 113.718 338.276 113.369 338.371 112.936C338.437 112.611 338.403 112.314 338.272 112.045C338.191 111.867 337.971 111.584 337.62 111.194L337.327 110.869Z" fill="white"/>
</svg>
