<svg width="334" height="110" viewBox="0 0 334 110" fill="none" xmlns="http://www.w3.org/2000/svg">
<path fill-rule="evenodd" clip-rule="evenodd" d="M90.5267 16.9824H89.0178V29.5203H83.2755V0.167718H89.0178V13.1666L90.359 12.5796L98.4485 0.167718H104.987L96.4366 12.4957L94.1731 14.0891L96.5204 15.7245L106.286 29.5203H99.2028L90.5267 16.9824ZM0.807583 0.242147H61.5099H62.2385H62.3176V0.321623V1.05009V48.7935V49.0121L62.3182 49.0195V49.0224L62.3188 49.07L62.3176 49.2221V49.522V49.6015H62.309C62.2118 52.4856 61.3272 55.457 59.8028 58.3044C58.2405 61.2225 56.0056 64.0107 53.2591 66.4406C50.3749 68.9914 46.921 71.1534 43.086 72.6577C39.5356 74.0508 35.6573 74.8816 31.5997 74.9378L31.1597 74.9438C27.1324 74.9438 23.2802 74.2176 19.7459 72.9416C15.9709 71.5791 12.5561 69.5885 9.67148 67.1865C6.76194 64.7645 4.38801 61.9196 2.72034 58.8714C1.09911 55.9074 0.145433 52.75 0.015829 49.6015H0V49.522V48.8661V48.7935V1.05009V0.321623V0.242147H0.0794491H0.807583ZM22.473 66.0251H23.3634V63.4941L23.4592 63.0582L23.152 63.4366L22.5817 63.8272L22.2297 63.3465L23.6899 62.1678H24.1575V66.0251H25.0286V66.7299H22.473V66.0251ZM27.1235 65.6341C27.1235 65.4844 27.1428 65.3512 27.1812 65.2335C27.2198 65.1161 27.2741 65.0094 27.3444 64.9133C27.415 64.8174 27.4982 64.7304 27.5944 64.6541C27.6905 64.5768 27.7938 64.5065 27.905 64.4426C27.6959 64.3097 27.5311 64.1572 27.4116 63.9841C27.2922 63.8114 27.2322 63.5966 27.2322 63.3403C27.2322 63.1738 27.2633 63.0175 27.3251 62.8725C27.3872 62.7272 27.477 62.6012 27.5944 62.4945C27.7116 62.3874 27.8537 62.3042 28.0203 62.2446C28.1867 62.1847 28.3749 62.1548 28.5838 62.1548C28.7761 62.1548 28.9512 62.1803 29.109 62.2318C29.2669 62.283 29.4026 62.3557 29.5156 62.4497C29.6287 62.5437 29.7163 62.6579 29.7783 62.7921C29.8401 62.9271 29.8712 63.0755 29.8712 63.2378C29.8712 63.4897 29.8146 63.7033 29.7015 63.8785C29.5885 64.0534 29.4227 64.2138 29.2049 64.3589C29.4611 64.5086 29.6544 64.6731 29.7847 64.8523C29.915 65.0318 29.9799 65.2626 29.9799 65.5444C29.9799 65.7368 29.9449 65.9105 29.8745 66.0668C29.8042 66.2227 29.7048 66.3562 29.5766 66.4672C29.4486 66.5784 29.2949 66.6646 29.1155 66.7266C28.936 66.7889 28.7398 66.8196 28.5259 66.8196C28.3126 66.8196 28.1193 66.7905 27.9467 66.7331C27.7737 66.6754 27.6266 66.5952 27.5046 66.4929C27.383 66.3904 27.2893 66.2665 27.2229 66.121C27.1565 65.9759 27.1235 65.8136 27.1235 65.6341ZM29.1858 65.5509C29.1858 65.4525 29.1621 65.3628 29.1155 65.2817C29.0684 65.2005 29.0076 65.1268 28.9329 65.0608C28.8582 64.9944 28.775 64.9336 28.6831 64.878C28.5912 64.8228 28.4983 64.7692 28.4045 64.718C28.2037 64.8332 28.0662 64.9581 27.9915 65.0928C27.9166 65.2273 27.8792 65.361 27.8792 65.4934C27.8792 65.6644 27.938 65.8101 28.0554 65.9321C28.1728 66.0538 28.3361 66.1146 28.5452 66.1146C28.7373 66.1146 28.8922 66.0675 29.0097 65.9734C29.1271 65.8796 29.1858 65.7387 29.1858 65.5509ZM28.0263 63.3529C28.0263 63.4557 28.0458 63.5453 28.0842 63.6221C28.1226 63.6991 28.1749 63.7662 28.2413 63.8239C28.3072 63.8818 28.3819 63.9349 28.4653 63.9841C28.5485 64.0333 28.635 64.0791 28.7248 64.1219C28.9808 63.904 29.109 63.6649 29.109 63.4042C29.109 63.2251 29.0568 63.0894 28.9522 62.9974C28.8474 62.9055 28.7205 62.8596 28.5707 62.8596C28.3829 62.8596 28.2452 62.9088 28.1581 63.0072C28.0701 63.1055 28.0263 63.2207 28.0263 63.3529ZM31.896 64.481C31.896 63.6948 32.0304 63.1105 32.2993 62.7286C32.5683 62.3459 32.9548 62.1548 33.4583 62.1548C33.9962 62.1548 34.3914 62.3436 34.6437 62.7218C34.8953 63.1002 35.0212 63.6865 35.0212 64.481C35.0212 65.2711 34.8856 65.8582 34.6146 66.243C34.3433 66.6272 33.9558 66.8196 33.4519 66.8196C32.9183 66.8196 32.5256 66.6179 32.2737 66.214C32.0215 65.8103 31.896 65.2327 31.896 64.481ZM32.7285 64.481C32.7285 65.0019 32.7851 65.4048 32.8982 65.6887C33.0112 65.9726 33.1981 66.1146 33.4583 66.1146C33.7103 66.1146 33.8952 65.9842 34.0124 65.724C34.1298 65.4633 34.1885 65.049 34.1885 64.481C34.1885 63.964 34.1333 63.5644 34.0222 63.2826C33.9112 63.0007 33.7211 62.8596 33.4519 62.8596C33.1957 62.8596 33.0112 62.992 32.8982 63.2571C32.7851 63.5217 32.7285 63.9295 32.7285 64.481ZM40.0879 65.4805H39.3838V66.7299H38.6085V65.4805H36.668V65.0063L38.6984 62.2127H39.3838V64.8141H40.0879V65.4805ZM38.6085 63.8336L38.6664 63.2955H38.6407L38.4231 63.7568L37.7567 64.6217L37.4366 64.8651L37.8466 64.8141H38.6085V63.8336ZM21.7714 18.64C19.8812 17.5758 19.073 19.1264 17.2154 19.5116C15.1586 19.9384 14.6109 18.3332 13.735 16.9009C15.1835 17.2053 15.268 17.8867 17.1565 16.5924C18.5444 15.6416 20.302 16.2644 21.3287 17.4344L20.1865 14.3588C23.5949 14.3312 27.4343 13.886 30.7979 14.3588L31.2234 14.4302C34.8211 15.1405 37.5352 18.2221 37.5352 22.1218C37.5352 24.976 35.9025 28.1471 33.5149 29.8341V30.1921C36.7101 29.4586 40.363 26.7825 40.6901 25.279C40.2229 25.0966 39.1006 24.4515 39.1145 24.3748C37.8636 23.4773 37.3269 21.6883 37.6219 20.3331C37.9171 18.9778 38.5471 18.3228 39.4473 17.7769C40.0673 17.4626 40.6289 17.272 41.3013 17.205L58.1154 14.8324C58.1948 15.4009 58.2496 15.9794 58.277 16.5557C58.7641 26.8446 50.8182 35.584 40.5337 36.0713C37.017 36.2377 32.4804 34.2907 30.8834 30.9648C30.8002 30.9785 30.7164 30.9926 30.632 31.0032C30.021 31.0708 29.4528 31.1752 28.9238 31.3116C28.3869 33.5485 32.9625 35.2868 38.2658 36.1402L37.4165 37.3707C38.4195 37.0538 39.4877 36.8828 40.5955 36.8828C46.4254 36.8828 51.1535 41.6126 51.1535 47.4457C51.1535 53.278 46.4254 58.008 40.5955 58.008C34.7659 58.008 30.0378 53.278 30.0378 47.4457C30.0378 46.8461 30.0886 46.2585 30.1845 45.6869L30.5454 45.7399L36.9371 46.1743C36.6199 46.6933 36.4361 47.3035 36.4361 47.9569C36.4361 49.8472 37.9685 51.38 39.8576 51.38C41.7473 51.38 43.2789 49.8472 43.2789 47.9569C43.2789 46.0968 41.7954 44.583 39.9476 44.5351L39.9362 44.5018L39.5163 44.5512C39.4753 44.5554 39.4336 44.5604 39.3921 44.5654L33.8865 45.2127C31.4825 45.6079 29.4009 45.7668 27.6247 45.7092L20.0088 56.1033L19.0565 53.5798C13.673 53.1275 15.536 55.6193 16.7421 56.6392C16.8599 56.7386 16.8613 57.1552 16.7495 57.2461C14.7718 57.0948 13.0442 55.5077 13.0442 53.4407C13.0442 51.3739 14.7604 49.6075 16.8758 49.6075C18.2879 49.6075 19.521 50.3719 20.1859 51.5097L23.6441 40.5981H23.097L21.0047 43.6073C19.7708 42.318 18.809 40.7664 18.2132 39.0438L12.3689 31.8039C12.1208 32.3647 11.7411 32.8537 11.2708 33.2347L10.1044 30.1444C7.52039 30.0159 5.92576 30.64 7.26454 32.6048L7.82504 32.6117L7.752 31.641H9.37389L9.11805 35.0369L9.12007 35.0609H9.11635L9.112 35.1224H8.00177L7.99706 34.8959L7.91493 33.8042C6.43643 33.276 5.03738 32.1105 5.03738 30.2537C5.03738 28.8242 6.00555 27.38 7.38372 26.7501L6.63471 16.7995L4.82261 14.5003H7.88663C7.77185 13.2262 8.16503 11.8474 8.91371 10.7347C8.23472 10.8495 7.60759 11.2136 7.0013 12.2223C6.60071 10.0372 8.43333 7.22673 10.9301 7.6467C13.4374 8.06904 13.2041 7.34292 14.5217 6.35949C14.4278 7.17352 14.4126 7.99225 14.2329 8.69915C16.8158 8.98003 16.698 8.03535 18.3593 6.79599C18.0624 9.36162 18.3361 11.9565 15.1892 12.6914C12.3208 13.3619 10.1774 11.6837 8.2125 14.5003H8.5616H12.2996L10.4922 16.7934L9.759 26.5268C10.377 26.6744 10.9379 26.9728 11.3987 27.38L16.0631 30.1817L17.0858 33.9719H17.5655C18.0553 27.6272 23.2738 22.6077 29.6988 22.4331L29.4491 21.8072L22.9906 21.8371L21.7714 18.64ZM21.4812 17.6199C21.6849 17.8823 21.8525 18.1682 21.9726 18.4663C24.7241 18.9597 29.827 22.1349 28.124 17.6199H21.4812ZM25.9688 8.43175H27.6322V8.83117H28.1574V10.1244C27.8207 10.2635 27.5836 10.5953 27.5836 10.9822C27.5836 11.3928 27.8504 11.74 28.2197 11.8626L28.2247 11.8643L28.2394 11.8693L28.2421 11.8697L28.251 11.8724L28.2618 11.8754L28.2674 11.8767L28.2836 11.8811L28.289 11.8824L28.2948 11.8838L28.3002 11.8851L28.3056 11.8865L28.3112 11.8875L28.317 11.8888L28.3267 11.8909L28.3332 11.8922L28.3388 11.8932L28.3442 11.8942L28.3462 11.8946L28.361 11.8969L28.3668 11.898L28.369 11.8983L28.3765 11.8993L28.3836 11.9003L28.389 11.901L28.3921 11.9016L28.395 11.902L28.4004 11.9027L28.4064 11.9033L28.4161 11.9043L28.4232 11.905L28.429 11.9057L28.4348 11.906L28.4462 11.907L28.4518 11.9074L28.4626 11.908L28.4863 11.9087L28.497 11.9091H28.5045H28.5101C29.0221 11.9091 29.4368 11.4941 29.4368 10.9822L29.4366 10.9647V10.9583L29.436 10.9418L29.4349 10.925C29.4341 10.9142 29.4335 10.9034 29.4325 10.893L29.4312 10.8802L29.4291 10.864V10.8616C29.4264 10.8421 29.4233 10.8226 29.4198 10.8034L29.4177 10.795L29.414 10.7785L29.4063 10.7458L29.402 10.73L29.3961 10.7094L29.3951 10.7064L29.3924 10.6983C29.3466 10.5562 29.2682 10.4296 29.1655 10.3268L29.1638 10.3255L29.1524 10.3141L29.141 10.3033L29.1333 10.2962L29.1285 10.2918L29.1167 10.2814L29.1047 10.2706L29.0995 10.2665L29.0827 10.2531L29.079 10.2504C29.069 10.2426 29.0584 10.2349 29.048 10.2272L29.0397 10.2214L29.0281 10.2137L29.0265 10.2123L29.013 10.2032L29.0095 10.2012L29.0063 10.1988C28.9949 10.1918 28.9831 10.1847 28.9713 10.178C28.9582 10.1709 28.9451 10.1635 28.9319 10.1568L28.9281 10.1544L28.9134 10.147L28.8987 10.1403V9.89946C28.8987 9.13631 29.5698 8.13402 30.3326 8.11348L31.7478 8.07543L29.725 13.3724L23.9397 13.3923L21.921 8.09529L23.2655 8.11348C24.0285 8.12358 24.6992 9.13631 24.6992 9.89946V10.1416C24.5119 10.2288 24.3592 10.3767 24.2656 10.5599L24.2646 10.5622L24.2571 10.5764L24.2555 10.5801L24.2463 10.6L24.2436 10.6064L24.2366 10.6212L24.2306 10.6367L24.2285 10.6421L24.2208 10.663L24.2192 10.6673L24.2133 10.6832C24.2011 10.7192 24.1907 10.7576 24.1831 10.7953C24.177 10.825 24.1723 10.8549 24.1689 10.8852V10.8889C24.1673 10.9027 24.1662 10.9162 24.1656 10.93L24.1652 10.9347V10.9395L24.1646 10.9583L24.1642 10.9647L24.164 10.9822C24.164 11.4941 24.5787 11.9091 25.0902 11.9091H25.0963H25.1025L25.1139 11.9087L25.1371 11.908L25.149 11.9074L25.1546 11.907L25.166 11.906L25.1718 11.9057L25.1778 11.905L25.1848 11.9043L25.1946 11.9033L25.2006 11.9027L25.206 11.902L25.2087 11.9016L25.2118 11.901L25.2176 11.9003L25.2228 11.8993L25.2286 11.8986L25.2317 11.8983L25.2344 11.898L25.2398 11.8969L25.2454 11.8963L25.2545 11.8946L25.2566 11.8942L25.262 11.8932L25.2676 11.8922L25.273 11.8912L25.2842 11.8888L25.2896 11.8875L25.295 11.8865L25.3 11.8851L25.3334 11.8767L25.3388 11.8754C25.7302 11.7666 26.0169 11.4083 26.0169 10.9822C26.0169 10.5953 25.78 10.2635 25.4433 10.1244V8.83117H25.9688V8.43175ZM49.197 40.3883C53.6599 38.5774 57.8046 35.551 58.7506 28.0112C57.87 31.734 55.9369 33.7935 53.5136 34.9352C50.9211 36.156 47.7686 36.3266 44.7429 36.3577C46.787 37.24 48.1682 38.5087 49.197 40.3883ZM60.7023 1.85804H1.6155V47.9855H1.62123L1.62022 48.0652L1.61517 48.5826V48.7867L1.6155 48.8661C1.6155 51.9007 2.46685 54.9691 4.00256 57.8588C5.576 60.8188 7.86813 63.5914 10.7002 65.9494C13.4448 68.2345 16.6943 70.1275 20.2882 71.4236C23.6526 72.6371 27.3197 73.3279 31.1587 73.3279H31.5813C35.4386 73.2743 39.1282 72.4834 42.507 71.1567C46.1571 69.7234 49.4457 67.6645 52.1924 65.235C54.844 62.8893 56.9883 60.2013 58.461 57.403C59.9049 54.6596 60.7038 51.8094 60.7038 49.0712C60.7038 48.9571 60.7048 48.9272 60.7054 48.9126L60.705 48.8747L60.7023 48.873V48.7935V48.6719L60.694 48.0656L60.6926 47.9855H60.7023V1.85804ZM270.743 91.2419H264.727V108.526H262.437V91.2419H256.421V89.199H270.743V91.2419ZM242.272 89.199H252.788V91.2419H244.565V97.5646H252.097V99.6079H244.565V106.483H252.927V108.526H242.272V89.199ZM238.227 91.2419H232.211V108.526H229.921V91.2419H223.904V89.199H238.227V91.2419ZM217.569 95.4389L217.733 93.23H217.623L216.436 95.4937L207.108 108.526H205.756V89.199H208.047V102.452L207.854 104.633H207.964L209.177 102.369L218.507 89.199H219.859V108.526H217.569V95.4389ZM201.158 107.725C200.606 108.149 199.907 108.443 199.061 108.609C198.215 108.775 197.313 108.857 196.357 108.857C195.197 108.857 194.112 108.659 193.1 108.264C192.088 107.868 191.205 107.265 190.45 106.455C189.696 105.645 189.098 104.61 188.657 103.349C188.215 102.088 187.994 100.593 187.994 98.8624C187.994 97.0584 188.238 95.5261 188.726 94.2652C189.213 93.0042 189.857 91.9737 190.657 91.1728C191.458 90.3723 192.355 89.788 193.348 89.4194C194.342 89.0514 195.354 88.8675 196.384 88.8675C197.488 88.8675 198.389 88.9271 199.088 89.0471C199.788 89.1666 200.386 89.3275 200.883 89.53L200.33 91.5457C199.447 91.1223 198.187 90.9104 196.549 90.9104C195.795 90.9104 195.05 91.0484 194.314 91.3247C193.578 91.6009 192.92 92.0517 192.341 92.6775C191.761 93.3037 191.297 94.1226 190.947 95.1351C190.598 96.1475 190.423 97.3898 190.423 98.8624C190.423 100.188 190.588 101.347 190.92 102.341C191.251 103.335 191.706 104.164 192.285 104.826C192.865 105.489 193.546 105.986 194.328 106.317C195.11 106.649 195.961 106.814 196.881 106.814C197.709 106.814 198.431 106.731 199.047 106.566C199.664 106.4 200.183 106.188 200.606 105.931L201.158 107.725ZM172.633 89.3918C173.333 89.2266 174.087 89.116 174.897 89.0608C175.706 89.0056 176.506 88.978 177.297 88.978C178.144 88.978 179.004 89.0608 179.878 89.2266C180.752 89.3918 181.548 89.6957 182.265 90.1375C182.983 90.5794 183.567 91.1867 184.017 91.9598C184.468 92.7329 184.694 93.7175 184.694 94.9142C184.694 96.0923 184.482 97.086 184.059 97.8961C183.636 98.7061 183.075 99.364 182.375 99.8702C181.676 100.376 180.876 100.74 179.975 100.961C179.073 101.182 178.144 101.292 177.187 101.292C177.095 101.292 176.943 101.292 176.732 101.292C176.52 101.292 176.299 101.288 176.069 101.278C175.839 101.269 175.614 101.255 175.393 101.237C175.172 101.218 175.016 101.2 174.924 101.182V108.526H172.633V89.3918ZM177.353 90.9656C176.874 90.9656 176.414 90.9752 175.973 90.9932C175.531 91.0119 175.182 91.058 174.924 91.1315V99.1384C175.016 99.1752 175.163 99.1984 175.366 99.2075C175.568 99.2167 175.779 99.226 176 99.2352C176.221 99.2443 176.433 99.2488 176.635 99.2488C176.837 99.2488 176.985 99.2488 177.077 99.2488C177.702 99.2488 178.323 99.1891 178.939 99.0693C179.556 98.9498 180.113 98.7337 180.609 98.4207C181.106 98.1075 181.506 97.6661 181.809 97.0951C182.113 96.5246 182.265 95.7975 182.265 94.9142C182.265 94.1594 182.123 93.5291 181.837 93.0228C181.552 92.5166 181.175 92.1117 180.706 91.8081C180.237 91.5042 179.708 91.288 179.119 91.1591C178.53 91.0304 177.941 90.9656 177.353 90.9656ZM156.638 89.199H167.153V91.2419H158.929V97.5646H166.463V99.6079H158.929V106.483H167.291V108.526H156.638V89.199ZM150.964 93.6164C150.964 94.0766 150.89 94.546 150.743 95.0246C150.596 95.5032 150.375 95.9495 150.081 96.3637C149.787 96.778 149.41 97.1414 148.949 97.4542C148.49 97.7672 147.947 98.0065 147.321 98.1723V98.2827C147.873 98.3747 148.402 98.5311 148.908 98.7518C149.414 98.9728 149.86 99.2765 150.246 99.6631C150.633 100.05 150.946 100.519 151.185 101.071C151.424 101.624 151.543 102.277 151.543 103.032C151.543 104.026 151.337 104.886 150.923 105.613C150.509 106.34 149.966 106.934 149.294 107.394C148.623 107.854 147.855 108.195 146.99 108.416C146.125 108.636 145.242 108.747 144.34 108.747C144.028 108.747 143.66 108.747 143.237 108.747C142.814 108.747 142.372 108.733 141.912 108.706C141.452 108.678 140.992 108.641 140.532 108.595C140.072 108.549 139.667 108.48 139.318 108.388V89.3642C139.999 89.2542 140.79 89.1618 141.691 89.0884C142.593 89.0147 143.577 88.978 144.644 88.978C145.362 88.978 146.093 89.0375 146.838 89.1575C147.583 89.277 148.26 89.507 148.867 89.8476C149.474 90.1882 149.975 90.6622 150.371 91.2695C150.766 91.877 150.964 92.6594 150.964 93.6164ZM144.561 106.759C145.15 106.759 145.72 106.69 146.272 106.552C146.825 106.414 147.312 106.193 147.735 105.889C148.158 105.585 148.494 105.213 148.742 104.771C148.991 104.329 149.115 103.805 149.115 103.197C149.115 102.443 148.963 101.835 148.659 101.375C148.356 100.915 147.96 100.556 147.473 100.298C146.986 100.04 146.438 99.8657 145.831 99.7737C145.224 99.6814 144.617 99.6355 144.009 99.6355H141.609V106.566C141.737 106.603 141.921 106.63 142.161 106.649C142.4 106.667 142.657 106.685 142.933 106.704C143.209 106.722 143.494 106.736 143.789 106.745C144.083 106.754 144.34 106.759 144.561 106.759ZM143.043 97.7028C143.356 97.7028 143.734 97.6937 144.175 97.6752C144.617 97.6565 144.985 97.6289 145.279 97.5922C145.72 97.4451 146.135 97.2655 146.521 97.0538C146.907 96.8423 147.252 96.5937 147.556 96.3085C147.859 96.0231 148.098 95.6917 148.273 95.3146C148.448 94.9371 148.535 94.5276 148.535 94.0857C148.535 93.4784 148.42 92.9766 148.191 92.581C147.96 92.1852 147.652 91.8681 147.266 91.6285C146.88 91.3895 146.438 91.2191 145.941 91.1176C145.444 91.0165 144.938 90.9656 144.423 90.9656C143.816 90.9656 143.26 90.9795 142.754 91.0071C142.248 91.0348 141.866 91.0761 141.609 91.1315V97.7028H143.043ZM131.132 95.4389L131.298 93.23H131.188L130.001 95.4937L120.673 108.526H119.32V89.199H121.611V102.452L121.418 104.633H121.528L122.743 102.369L132.071 89.199H133.423V108.526H131.132V95.4389ZM111.135 99.6631H101.862V108.526H99.5714V89.199H101.862V97.6198H111.135V89.199H113.426V108.526H111.135V99.6631ZM88.5436 99.3871L89.261 101.844H89.3989L89.9512 99.3041L93.6492 89.199H95.9949L91.11 101.761C90.6136 103.068 90.1767 104.159 89.7993 105.033C89.4222 105.908 89.0405 106.616 88.654 107.159C88.2675 107.702 87.8534 108.089 87.4122 108.319C86.9705 108.549 86.4278 108.664 85.7839 108.664C85.1766 108.664 84.6935 108.614 84.335 108.512C83.9761 108.411 83.6402 108.259 83.3274 108.057L84.0176 106.152C84.3854 106.354 84.7258 106.483 85.0387 106.538C85.3513 106.593 85.6364 106.621 85.8942 106.621C86.4093 106.621 86.8417 106.358 87.1914 105.834C87.5408 105.309 87.8445 104.532 88.1019 103.501L80.9541 89.199H83.6035L88.5436 99.3871ZM328.552 56.6587L328.762 53.6815H328.635L326.832 56.7426L319.372 66.2194H315.935V45.2532H321.385V55.2331L321.134 58.0848H321.3L323.019 55.1075L330.563 45.2532H334V66.2194H328.552V56.6587ZM322.725 36.6991C322.922 37.7894 323.25 38.5581 323.71 39.0054C324.171 39.4526 324.764 39.6764 325.492 39.6764C326.274 39.6764 326.895 39.4526 327.357 39.0054C327.818 38.5581 328.131 37.8035 328.299 36.7412L332.45 37.7894C332.114 39.6066 331.291 40.9555 329.977 41.8357C328.664 42.7165 327.127 43.1567 325.366 43.1567C324.501 43.1567 323.663 43.059 322.851 42.8633C322.04 42.6678 321.314 42.3531 320.671 41.9198C320.03 41.4866 319.484 40.9343 319.036 40.2633C318.59 39.5925 318.283 38.7677 318.115 37.7894L322.725 36.6991ZM291.92 61.649C292.758 61.8167 293.555 61.9005 294.308 61.9005C295.565 61.9005 296.447 61.6697 296.949 61.2084C297.453 60.7474 297.704 60.0272 297.704 59.0488C297.704 58.1543 297.453 57.4765 296.949 57.0155C296.447 56.5539 295.609 56.3233 294.434 56.3233C293.511 56.3233 292.673 56.4213 291.92 56.617V61.649ZM291.92 52.7174C292.59 52.6055 293.269 52.5283 293.951 52.4866C294.638 52.4445 295.258 52.4237 295.818 52.4237C297.241 52.4237 298.43 52.5844 299.38 52.9058C300.33 53.2275 301.098 53.6814 301.685 54.2688C302.272 54.856 302.691 55.5477 302.942 56.3445C303.193 57.1411 303.32 58.0007 303.32 58.9233C303.32 60.1812 303.152 61.2856 302.818 62.2359C302.482 63.1863 301.936 63.976 301.183 64.6049C300.428 65.2339 299.451 65.7092 298.247 66.0307C297.046 66.352 295.565 66.5131 293.806 66.5131C292.213 66.5131 290.837 66.485 289.678 66.4292C288.518 66.3734 287.45 66.3032 286.47 66.2194V45.2532H291.92V52.7174ZM305.71 45.2532H311.157V66.2194H305.71V45.2532ZM276.243 57.9588H269.411V66.2194H263.964V45.2532H269.411V53.1366H276.243V45.2532H281.693V66.2194H276.243V57.9588ZM248.876 61.649C249.714 61.8167 250.51 61.9005 251.263 61.9005C252.606 61.9005 253.577 61.6697 254.176 61.2084C254.778 60.7474 255.079 60.0272 255.079 59.0488C255.079 57.232 253.848 56.3233 251.39 56.3233C250.467 56.3233 249.629 56.4213 248.876 56.617V61.649ZM248.876 52.7174C249.546 52.6055 250.224 52.5283 250.907 52.4866C251.591 52.4445 252.214 52.4237 252.774 52.4237C254.226 52.4237 255.456 52.5844 256.462 52.9058C257.466 53.2275 258.284 53.6814 258.912 54.2688C259.541 54.856 259.995 55.5477 260.275 56.3445C260.555 57.1411 260.694 58.0007 260.694 58.9233C260.694 61.467 259.939 63.3681 258.431 64.626C256.923 65.884 254.365 66.5131 250.761 66.5131C249.168 66.5131 247.793 66.485 246.633 66.4292C245.473 66.3734 244.405 66.3032 243.426 66.2194V45.2532H248.876V52.7174ZM233.242 50.0755H229.093C228.925 52.0603 228.728 54.0312 228.506 55.9879C228.282 57.9449 227.925 59.6989 227.437 61.2505C226.948 62.8021 226.284 64.0598 225.446 65.0245C224.608 65.9886 223.517 66.4709 222.176 66.4709C220.556 66.4709 219.409 66.2615 218.739 65.8418L219.409 61.3134C219.857 61.4811 220.276 61.5649 220.668 61.5649C221.226 61.5649 221.716 61.3273 222.135 60.852C222.554 60.3769 222.909 59.5241 223.203 58.2942C223.496 57.0643 223.734 55.3937 223.915 53.2834C224.097 51.1728 224.23 48.4961 224.313 45.2532H238.69V66.2194H233.242V50.0755ZM200.926 46.4694C202.044 45.9661 203.371 45.5678 204.908 45.2743C206.445 44.9807 208.051 44.8339 209.729 44.8339C211.181 44.8339 212.397 45.0087 213.374 45.3582C214.353 45.7075 215.127 46.2039 215.702 46.8469C216.274 47.4897 216.679 48.2587 216.915 49.1532C217.154 50.0477 217.272 51.0539 217.272 52.1722C217.272 53.4021 217.231 54.6391 217.148 55.8831C217.063 57.1272 217.015 58.35 217 59.5521C216.986 60.7545 217.021 61.9213 217.104 63.0537C217.189 64.1856 217.399 65.2549 217.733 66.2615H213.291L212.409 63.3681H212.202C211.642 64.2348 210.866 64.9824 209.874 65.6115C208.883 66.2403 207.605 66.5548 206.04 66.5548C205.062 66.5548 204.181 66.408 203.399 66.1146C202.617 65.8209 201.946 65.4016 201.387 64.8568C200.829 64.3116 200.395 63.6686 200.088 62.9277C199.781 62.1871 199.627 61.3553 199.627 60.4328C199.627 59.147 199.913 58.0634 200.486 57.1832C201.059 56.3024 201.883 55.5894 202.959 55.0444C204.035 54.4992 205.32 54.1221 206.815 53.9122C208.31 53.7028 209.98 53.6397 211.824 53.7236C212.019 52.1583 211.907 51.0331 211.488 50.348C211.069 49.6631 210.134 49.3209 208.679 49.3209C207.59 49.3209 206.438 49.4328 205.222 49.6563C204.007 49.88 203.008 50.1733 202.226 50.5367L200.926 46.4694ZM207.841 62.0682C208.933 62.0682 209.798 61.8237 210.441 61.3343C211.084 60.8449 211.559 60.3209 211.866 59.762V57.0362C210.999 56.9524 210.169 56.9383 209.372 56.9941C208.576 57.0501 207.87 57.1761 207.255 57.3716C206.641 57.5674 206.151 57.8469 205.788 58.2103C205.425 58.5738 205.244 59.0351 205.244 59.5941C205.244 60.3769 205.474 60.9848 205.935 61.4182C206.396 61.8515 207.032 62.0682 207.841 62.0682ZM178.419 45.2532H182.401L183.03 47.7693H183.197C183.924 46.707 184.783 45.9244 185.775 45.4213C186.767 44.9178 187.975 44.6662 189.4 44.6662C192.027 44.6662 193.997 45.4981 195.31 47.1614C196.623 48.8244 197.28 51.5012 197.28 55.1914C197.28 56.9804 197.07 58.5945 196.651 60.0343C196.232 61.474 195.611 62.6969 194.786 63.7037C193.962 64.7099 192.956 65.4784 191.768 66.0095C190.581 66.5411 189.218 66.8063 187.682 66.8063C186.816 66.8063 186.103 66.7434 185.544 66.6179C184.985 66.4919 184.426 66.2895 183.868 66.0095V74.6057H178.419V45.2532ZM187.765 49.2788C186.704 49.2788 185.872 49.5444 185.272 50.0755C184.671 50.6066 184.203 51.4036 183.868 52.4658V61.1874C184.259 61.495 184.685 61.7399 185.146 61.9213C185.607 62.1033 186.215 62.1938 186.969 62.1938C188.534 62.1938 189.708 61.6417 190.49 60.5376C191.272 59.4334 191.664 57.6095 191.664 55.0654C191.664 53.2205 191.356 51.7948 190.741 50.7882C190.127 49.7818 189.135 49.2788 187.765 49.2788ZM173.892 64.4162C173.054 65.0872 171.915 65.6532 170.476 66.1146C169.037 66.5757 167.507 66.8063 165.887 66.8063C162.506 66.8063 160.033 65.8209 158.468 63.85C156.903 61.8796 156.121 59.1748 156.121 55.7362C156.121 52.0464 157.001 49.2788 158.762 47.4339C160.522 45.589 162.995 44.6662 166.18 44.6662C167.242 44.6662 168.276 44.8059 169.282 45.0855C170.288 45.3652 171.182 45.8264 171.964 46.4694C172.747 47.1122 173.375 47.9787 173.85 49.0693C174.325 50.1594 174.563 51.5153 174.563 53.1366C174.563 53.7236 174.528 54.3529 174.458 55.0237C174.388 55.6945 174.283 56.3933 174.144 57.1201H161.57C161.654 58.8811 162.107 60.209 162.932 61.1035C163.756 61.9981 165.09 62.4453 166.935 62.4453C168.08 62.4453 169.107 62.271 170.015 61.9213C170.923 61.5718 171.615 61.2154 172.09 60.852L173.892 64.4162ZM166.096 49.0272C164.671 49.0272 163.616 49.4535 162.932 50.3063C162.247 51.1587 161.835 52.2979 161.695 53.7236H169.491C169.603 52.2141 169.373 51.0539 168.8 50.2432C168.227 49.4328 167.326 49.0272 166.096 49.0272ZM154.151 70.9998H150.169L149.541 66.2194H135.458L134.829 70.9998H130.847V61.3972H133.32C133.544 61.0898 133.83 60.5654 134.179 59.8248C134.529 59.0839 134.878 58.0705 135.227 56.7847C135.577 55.4987 135.877 53.9052 136.128 52.0043C136.38 50.1035 136.505 47.8531 136.505 45.2532H151.091V61.3972H154.151V70.9998ZM145.643 61.649V49.8657H141.242C141.186 50.8721 141.088 51.9414 140.948 53.0735C140.809 54.2059 140.634 55.3032 140.425 56.3655C140.215 57.4277 139.97 58.4202 139.691 59.3425C139.412 60.2651 139.104 61.034 138.769 61.649H145.643ZM129.255 64.4162C128.416 65.0872 127.278 65.6532 125.839 66.1146C124.4 66.5757 122.87 66.8063 121.249 66.8063C117.868 66.8063 115.395 65.8209 113.831 63.85C112.266 61.8796 111.483 59.1748 111.483 55.7362C111.483 52.0464 112.363 49.2788 114.124 47.4339C115.884 45.589 118.357 44.6662 121.542 44.6662C122.605 44.6662 123.638 44.8059 124.644 45.0855C125.65 45.3652 126.544 45.8264 127.326 46.4694C128.109 47.1122 128.738 47.9787 129.213 49.0693C129.688 50.1594 129.925 51.5153 129.925 53.1366C129.925 53.7236 129.89 54.3529 129.821 55.0237C129.75 55.6945 129.646 56.3933 129.506 57.1201H116.932C117.016 58.8811 117.47 60.209 118.294 61.1035C119.119 61.9981 120.453 62.4453 122.297 62.4453C123.443 62.4453 124.469 62.271 125.378 61.9213C126.286 61.5718 126.977 61.2154 127.452 60.852L129.255 64.4162ZM121.459 49.0272C120.034 49.0272 118.979 49.4535 118.294 50.3063C117.61 51.1587 117.197 52.2979 117.058 53.7236H124.854C124.965 52.2141 124.735 51.0539 124.162 50.2432C123.59 49.4328 122.688 49.0272 121.459 49.0272ZM92.7481 66.4709C92.2732 66.6386 91.7774 66.7366 91.2602 66.7646C90.7432 66.7926 90.2752 66.8063 89.8562 66.8063C87.3136 66.8063 85.3573 65.8977 83.9883 64.0808C82.6192 62.2639 81.9346 59.4824 81.9346 55.7362C81.9346 52.1583 82.6889 49.4465 84.1981 47.6016C85.7069 45.7567 87.8862 44.8339 90.7364 44.8339C91.5187 44.8339 92.1894 44.8898 92.7481 45.0016V36.8668H98.113V45.0438C98.6161 44.9599 99.0632 44.9039 99.4542 44.8761C99.8455 44.848 100.223 44.8339 100.586 44.8339C103.352 44.8339 105.434 45.6517 106.831 47.2869C108.228 48.9224 108.927 51.5991 108.927 55.3169C108.927 57.078 108.738 58.6647 108.361 60.0764C107.983 61.4879 107.432 62.6969 106.705 63.7037C105.979 64.7099 105.092 65.4784 104.044 66.0095C102.996 66.5411 101.787 66.8063 100.418 66.8063C100.167 66.8063 99.7965 66.7856 99.3075 66.7434C98.8186 66.7017 98.4205 66.6249 98.113 66.5131V74.6057H92.7481V66.4709ZM99.3704 49.1532C99.091 49.1532 98.8466 49.1739 98.6368 49.2159C98.4275 49.2578 98.169 49.3068 97.8616 49.3626V62.3615C98.0852 62.4173 98.3437 62.4524 98.6368 62.4665C98.9304 62.4804 99.2449 62.4875 99.5801 62.4875C100.921 62.4875 101.906 61.9354 102.535 60.8312C103.163 59.7269 103.478 57.8891 103.478 55.3169C103.478 53.1366 103.171 51.5643 102.556 50.5996C101.941 49.6351 100.879 49.1532 99.3704 49.1532ZM91.2812 62.4875C91.5884 62.4875 91.8749 62.4665 92.1404 62.4246C92.4058 62.3827 92.6923 62.3335 92.9997 62.2776V49.3209C92.4688 49.209 91.9239 49.1532 91.365 49.1532C90.0796 49.1532 89.0946 49.6492 88.4102 50.6417C87.7256 51.6338 87.3833 53.3324 87.3833 55.7362C87.3833 57.9169 87.6976 59.587 88.3264 60.7474C88.955 61.9076 89.94 62.4875 91.2812 62.4875ZM265.43 19.9596L265.64 16.9824H265.513L263.713 20.0434L256.251 29.5203H252.815V8.55399H258.263V18.534L258.012 21.3855H258.18L259.898 18.4083L267.443 8.55399H270.878V29.5203H265.43V19.9596ZM259.603 0C259.8 1.09017 260.128 1.85905 260.588 2.30631C261.051 2.75355 261.644 2.97718 262.37 2.97718C263.153 2.97718 263.775 2.75355 264.235 2.30631C264.696 1.85905 265.011 1.10432 265.179 0.0420982L269.328 1.09016C268.992 2.90745 268.169 4.25629 266.856 5.13665C265.542 6.01735 264.005 6.45752 262.244 6.45752C261.379 6.45752 260.541 6.35985 259.73 6.16417C258.918 5.9685 258.192 5.65394 257.549 5.2205C256.908 4.78739 256.363 4.23506 255.917 3.56419C255.469 2.89331 255.161 2.06852 254.993 1.09016L259.603 0ZM242.588 19.9596L242.797 16.9824H242.671L240.87 20.0434L233.408 29.5203H229.972V8.55399H235.42V18.534L235.169 21.3855H235.337L237.055 18.4083L244.6 8.55399H248.035V29.5203H242.588V19.9596ZM216.393 20.8402H214.924V29.5203H209.476V8.55399H214.924V17.4856L216.225 16.8985L221.129 8.55399H226.954L221.882 16.5213L219.745 18.1147L222.091 19.7501L227.751 29.5203H221.504L216.393 20.8402ZM206.165 28.2202C205.326 28.8352 204.313 29.3036 203.126 29.6249C201.938 29.9466 200.716 30.1072 199.459 30.1072C197.782 30.1072 196.364 29.842 195.205 29.3104C194.045 28.7793 193.102 28.0317 192.376 27.0671C191.649 26.1028 191.125 24.9355 190.804 23.5659C190.482 22.1961 190.321 20.6867 190.321 19.0371C190.321 15.4871 191.118 12.7544 192.711 10.8394C194.303 8.92447 196.622 7.96699 199.668 7.96699C201.205 7.96699 202.441 8.09295 203.378 8.34454C204.313 8.5961 205.159 8.91772 205.913 9.30907L204.614 13.7536C203.971 13.4462 203.335 13.2087 202.707 13.041C202.078 12.8733 201.359 12.7894 200.548 12.7894C199.039 12.7894 197.894 13.2855 197.111 14.278C196.329 15.2702 195.938 16.8568 195.938 19.0371C195.938 19.9316 196.036 20.7564 196.231 21.5112C196.427 22.2659 196.72 22.923 197.111 23.4821C197.503 24.041 198.013 24.4812 198.641 24.8029C199.27 25.1244 200.004 25.2851 200.842 25.2851C201.764 25.2851 202.546 25.1663 203.189 24.9285C203.831 24.6911 204.404 24.4044 204.907 24.069L206.165 28.2202ZM181.101 21.2595H174.269V29.5203H168.82V8.55399H174.269V16.4375H181.101V8.55399H186.549V29.5203H181.101V21.2595ZM147.906 9.77014C149.024 9.26696 150.35 8.86855 151.887 8.57521C153.424 8.28155 155.031 8.13471 156.707 8.13471C158.16 8.13471 159.376 8.3095 160.354 8.65908C161.332 9.00834 162.107 9.50475 162.68 10.1477C163.253 10.7906 163.658 11.5595 163.895 12.454C164.133 13.3485 164.252 14.3548 164.252 15.4729C164.252 16.7029 164.21 17.9399 164.126 19.184C164.042 20.428 163.993 21.6509 163.979 22.8528C163.965 24.0551 164 25.2222 164.084 26.3545C164.168 27.4863 164.378 28.5556 164.713 29.5624H160.27L159.39 26.669H159.18C158.622 27.5355 157.846 28.2833 156.854 28.9124C155.862 29.541 154.584 29.8557 153.019 29.8557C152.041 29.8557 151.161 29.7089 150.378 29.4155C149.596 29.1218 148.925 28.7025 148.367 28.1575C147.808 27.6123 147.375 26.9695 147.067 26.2286C146.76 25.4878 146.607 24.656 146.607 23.7336C146.607 22.4477 146.893 21.3643 147.466 20.484C148.039 19.6032 148.863 18.8903 149.938 18.3454C151.014 17.8001 152.3 17.4229 153.795 17.2131C155.289 17.0036 156.959 16.9406 158.803 17.0245C158.999 15.4591 158.887 14.3339 158.468 13.6489C158.049 12.9639 157.112 12.6217 155.66 12.6217C154.57 12.6217 153.417 12.7335 152.202 12.9571C150.986 13.1808 149.987 13.4741 149.205 13.8375L147.906 9.77014ZM154.821 25.3691C155.911 25.3691 156.777 25.1244 157.42 24.6352C158.063 24.1458 158.538 23.6218 158.845 23.0626V20.3371C157.979 20.2532 157.147 20.2391 156.351 20.295C155.555 20.3509 154.849 20.4769 154.235 20.6725C153.62 20.8682 153.131 21.1478 152.767 21.5112C152.404 21.8744 152.223 22.336 152.223 22.8949C152.223 23.6776 152.453 24.2855 152.914 24.7191C153.375 25.1524 154.011 25.3691 154.821 25.3691ZM132.104 20.8402V17.0245H134.661C135.639 17.0245 136.443 16.8288 137.071 16.4375C137.7 16.0461 138.014 15.5288 138.014 14.8859C138.014 14.1312 137.735 13.593 137.176 13.2717C136.617 12.9501 135.765 12.7894 134.619 12.7894C133.53 12.7894 132.565 12.9292 131.727 13.2087C130.889 13.4882 130.218 13.7816 129.715 14.0891L128.542 9.93784C129.38 9.46264 130.491 9.05043 131.874 8.70083C133.257 8.35159 134.731 8.17682 136.296 8.17682C138.699 8.17682 140.494 8.62406 141.682 9.51855C142.869 10.4131 143.463 11.713 143.463 13.4182C143.463 13.8934 143.4 14.3757 143.274 14.865C143.148 15.354 142.946 15.8225 142.667 16.2697C142.387 16.717 142.045 17.1154 141.64 17.4647C141.234 17.8143 140.752 18.0867 140.193 18.2824V18.4501C141.675 18.7855 142.722 19.3796 143.337 20.2324C143.952 21.0847 144.259 22.2242 144.259 23.6498C144.259 24.5443 144.078 25.3762 143.714 26.1447C143.351 26.9135 142.799 27.5774 142.059 28.1363C141.318 28.6955 140.389 29.1427 139.272 29.4781C138.154 29.8139 136.827 29.9816 135.29 29.9816C133.753 29.9816 132.419 29.8206 131.287 29.4993C130.155 29.1778 129.212 28.8073 128.458 28.3879L129.631 24.1529C130.274 24.5163 131.05 24.81 131.958 25.0335C132.866 25.2572 133.879 25.3691 134.996 25.3691C137.539 25.3691 138.81 24.5584 138.81 22.9367C138.81 22.21 138.482 21.6789 137.825 21.3433C137.169 21.0079 135.946 20.8402 134.158 20.8402H132.104ZM109.01 9.77014C110.128 9.26696 111.455 8.86855 112.992 8.57521C114.529 8.28155 116.136 8.13471 117.812 8.13471C119.265 8.13471 120.481 8.3095 121.459 8.65908C122.437 9.00834 123.212 9.50475 123.785 10.1477C124.358 10.7906 124.763 11.5595 125 12.454C125.238 13.3485 125.356 14.3548 125.356 15.4729C125.356 16.7029 125.315 17.9399 125.231 19.184C125.147 20.428 125.098 21.6509 125.084 22.8528C125.07 24.0551 125.105 25.2222 125.189 26.3545C125.273 27.4863 125.482 28.5556 125.818 29.5624H121.375L120.495 26.669H120.285C119.726 27.5355 118.951 28.2833 117.959 28.9124C116.967 29.541 115.688 29.8557 114.124 29.8557C113.146 29.8557 112.265 29.7089 111.483 29.4155C110.701 29.1218 110.03 28.7025 109.472 28.1575C108.913 27.6123 108.479 26.9695 108.172 26.2286C107.865 25.4878 107.711 24.656 107.711 23.7336C107.711 22.4477 107.997 21.3643 108.57 20.484C109.143 19.6032 109.967 18.8903 111.043 18.3454C112.119 17.8001 113.404 17.4229 114.899 17.2131C116.394 17.0036 118.064 16.9406 119.908 17.0245C120.103 15.4591 119.991 14.3339 119.572 13.6489C119.153 12.9639 118.217 12.6217 116.764 12.6217C115.675 12.6217 114.522 12.7335 113.306 12.9571C112.091 13.1808 111.092 13.4741 110.31 13.8375L109.01 9.77014ZM115.926 25.3691C117.016 25.3691 117.882 25.1244 118.525 24.6352C119.167 24.1458 119.643 23.6218 119.95 23.0626V20.3371C119.084 20.2532 118.252 20.2391 117.456 20.295C116.66 20.3509 115.954 20.4769 115.339 20.6725C114.725 20.8682 114.235 21.1478 113.872 21.5112C113.509 21.8744 113.328 22.336 113.328 22.8949C113.328 23.6776 113.558 24.2855 114.019 24.7191C114.48 25.1524 115.116 25.3691 115.926 25.3691Z" fill="white"/>
</svg>
