<svg width="408" height="246" viewBox="0 0 408 246" fill="none" xmlns="http://www.w3.org/2000/svg">
<path fill-rule="evenodd" clip-rule="evenodd" d="M122.2 70.3998L90.7 52.2998L0 104.7V140.2L30.5 158V123.3L122.2 70.3998Z" fill="white"/>
<path fill-rule="evenodd" clip-rule="evenodd" d="M61.1 239.3V140.4L30.5 158V221.5L61.1 239.3Z" fill="white"/>
<path fill-rule="evenodd" clip-rule="evenodd" d="M360.2 38.2004C357.7 36.8004 355.3 35.4004 352.9 34.0004C355.3 32.6004 357.6 31.3004 360 29.9004C362.5 31.3004 364.9 32.7004 367.3 34.1004C368.1 33.6004 368.9 33.2004 369.8 32.7004C364.7 29.8004 359.7 26.8004 354.6 23.9004C353.7 24.4004 352.9 24.9004 352.1 25.3004C354.2 26.5004 356.3 27.7004 358.4 28.9004C356 30.3004 353.7 31.7004 351.3 33.0004C349.2 31.8004 347.1 30.6004 345 29.4004C344.2 29.9004 343.4 30.4004 342.5 30.8004C347.6 33.7004 352.6 36.7004 357.7 39.6004C358.5 39.1004 359.3 38.7004 360.2 38.2004Z" fill="white"/>
<path fill-rule="evenodd" clip-rule="evenodd" d="M388.1 22.1004C388.9 21.6004 389.7 21.2004 390.5 20.7004C385.4 17.8004 380.4 14.8004 375.3 11.9004C374.5 12.4004 373.7 12.8004 372.9 13.3004C378 16.2004 383 19.1004 388.1 22.1004ZM374.4 30.0004C376.3 28.9004 378.3 27.8004 380.2 26.7004C381.9 25.7004 382.7 24.8004 382.9 23.9004C383.1 22.7004 382.1 21.6004 380.4 20.6004C378.8 19.7004 377.2 19.2004 375.3 19.3004C373.8 19.4004 372.2 19.9004 370.4 21.0004C369.3 21.6004 368.2 22.3004 367.1 22.9004C365.3 21.9004 363.5 20.8004 361.7 19.8004C360.8 20.3004 360.1 20.7004 359.2 21.2004C364.3 24.1004 369.3 27.0004 374.4 30.0004ZM368.7 23.8004C369.8 23.1004 371 22.5004 372.1 21.8004C372.9 21.3004 373.8 21.2004 374.6 21.2004C375.8 21.2004 376.9 21.7004 377.7 22.2004C378.6 22.7004 379.7 23.5004 379.8 24.3004C379.9 24.8004 379.6 25.2004 378.7 25.7004C377.5 26.4004 376.4 27.0004 375.2 27.7004C373.1 26.4004 370.9 25.1004 368.7 23.8004Z" fill="white"/>
<path fill-rule="evenodd" clip-rule="evenodd" d="M384.2 4.2C387.7 2.2 386.1 0.2 385.7 0C384.9 0.2 384.2 0.3 383.5 0.4C383.7 1 384.4 1.8 382.3 3C380.2 4.2 378.8 3.8 377.7 3.7C377.5 4.1 377.2 4.5 377 4.9C377.4 5.2 380.8 6.1 384.2 4.2ZM397.5 16.6C396.2 13.3 395 10 393.8 6.8C393.4 6.1 393 5.5 392.7 4.9H392.8C393.5 5.4 394.1 5.8 394.8 6.3C398.3 8.3 401.7 10.3 405.2 12.3C406 11.8 406.8 11.4 407.6 10.9C402.5 7.9 397.4 5 392.3 2C391.5 2.5 390.7 2.9 390 3.4C391.2 6.6 392.4 9.8 393.6 13C393.9 13.6 394.2 14.3 394.6 14.9L394.5 15C393.9 14.5 393.2 14.1 392.6 13.6C389.3 11.7 385.9 9.7 382.5 7.8C381.7 8.3 380.9 8.7 380.1 9.2C385.2 12.1 390.2 15.1 395.3 18C396 17.5 396.8 17.1 397.5 16.6Z" fill="white"/>
<path fill-rule="evenodd" clip-rule="evenodd" d="M118.7 145.499C115.4 143.599 112 141.599 108.7 139.699C108.7 144.899 108.7 150.199 108.7 155.499C108.7 160.699 108.7 165.999 108.7 171.199C106.3 169.799 104 168.499 101.6 167.099C101.6 161.799 101.6 156.599 101.6 151.399C101.6 146.099 101.6 140.899 101.6 135.599C98.3001 133.699 94.9001 131.799 91.6001 129.799C91.6001 127.499 91.6001 125.099 91.6001 122.699C94.9001 124.599 98.2001 126.599 101.6 128.499C104 129.899 106.3 131.199 108.7 132.599C112 134.499 115.4 136.399 118.7 138.399C118.7 140.799 118.7 143.099 118.7 145.499ZM194.8 201.199C195.2 207.999 195.7 214.799 196.1 221.599C198.3 222.799 200.4 224.099 202.6 225.299C202.2 219.599 201.8 213.799 201.5 207.999C201.1 202.299 200.7 196.499 200.4 190.699C200.3 190.599 200.2 190.599 200.1 190.499C198 189.299 196 188.099 193.9 186.899C192.2 190.199 190.6 193.399 189 196.699C187.4 199.999 185.7 203.199 184.1 206.499C182.5 201.399 180.9 196.199 179.3 191.099C177.7 185.999 176.1 180.899 174.5 175.699C172.4 174.499 170.4 173.299 168.3 172.099C168.2 171.999 168.1 171.999 168 171.899C167.6 177.199 167.3 182.599 166.9 187.899C166.5 193.299 166.2 198.599 165.8 203.899C168 205.099 170.1 206.399 172.3 207.699C172.7 201.499 173.1 195.299 173.6 189.099C176.1 196.999 178.5 204.899 181 212.699C183.1 213.899 185.1 215.099 187.2 216.299C189.7 211.399 192.3 206.299 194.8 201.199ZM146.8 159.599C139.3 155.299 133.1 157.599 131.7 164.699C130.6 164.099 129.5 163.399 128.4 162.799C128.4 158.299 128.4 153.799 128.4 149.299C126 147.899 123.7 146.599 121.3 145.199C121.3 150.799 121.3 156.299 121.3 161.899C121.3 167.399 121.3 172.999 121.3 178.499C123.7 179.899 126 181.199 128.4 182.599C128.4 178.399 128.4 174.099 128.4 169.899C129.5 170.499 130.6 171.199 131.8 171.799C133.4 180.299 139.5 189.599 146.8 193.799C155.3 198.699 162.2 194.999 162.2 185.499C162.2 176.099 155.3 164.499 146.8 159.599ZM146.8 166.799C151.7 169.599 155.7 176.399 155.7 181.899C155.7 187.399 151.7 189.499 146.8 186.699C141.9 183.899 137.9 177.099 137.9 171.699C138 166.099 141.9 163.999 146.8 166.799ZM227.8 201.399C229.4 206.599 231 211.899 232.7 217.099C234.3 222.299 236 227.599 237.6 232.799C237.3 233.499 237 234.199 236.7 234.899C236 236.599 235.5 238.799 231.2 236.299C231.2 238.699 231.2 240.999 231.2 243.399C238.6 247.699 240.7 244.599 243.3 238.699C245 234.899 246.6 231.099 248.3 227.399C250 223.599 251.6 219.899 253.3 216.099C250.9 214.699 248.4 213.299 246 211.899C244.3 216.799 242.6 221.699 240.9 226.599C239 219.599 237.1 212.699 235.2 205.699C232.7 204.299 230.3 202.899 227.8 201.399ZM214.7 200.899C214.7 206.199 214.7 211.399 214.7 216.699C214.7 221.899 214.7 227.199 214.7 232.399C212.3 230.999 210 229.699 207.6 228.299C207.6 223.099 207.6 217.799 207.6 212.599C207.6 207.299 207.6 202.099 207.6 196.799C207.6 194.499 207.6 192.099 207.6 189.699C210 191.099 212.3 192.399 214.7 193.799C218.7 196.099 222.7 198.399 226.7 200.699C226.7 203.099 226.7 205.399 226.7 207.799C222.6 205.499 218.7 203.199 214.7 200.899Z" fill="white"/>
<path fill-rule="evenodd" clip-rule="evenodd" d="M127.6 102C123.1 104.6 118.6 107.2 114 109.8C114.7 110.2 115.3 110.6 116 111C117.8 110 119.7 108.9 121.5 107.8C127.6 111.3 133.7 114.8 139.8 118.3C140.7 117.8 141.5 117.3 142.4 116.8C136.3 113.3 130.2 109.8 124.1 106.3C125.9 105.3 127.7 104.2 129.5 103.2C128.9 102.8 128.3 102.4 127.6 102Z" fill="white"/>
<path fill-rule="evenodd" clip-rule="evenodd" d="M149.9 112.499C150.7 111.999 151.5 111.599 152.3 111.099C149.9 109.699 147.5 108.299 145.1 106.999C146.2 106.399 147.3 105.799 148.3 105.099C152.8 107.599 157.5 108.499 162.5 105.599C167.7 102.599 166.1 99.7992 161.5 97.1992C156.9 94.4992 151.8 93.4992 146.6 96.4992C142 99.0992 143 101.799 146.6 104.199C145.5 104.899 144.4 105.499 143.3 106.099C141.2 104.899 139.1 103.699 137 102.499C136.2 102.999 135.4 103.399 134.6 103.899C139.7 106.699 144.8 109.599 149.9 112.499ZM150.7 103.399C147.3 101.399 144.8 99.2992 148.3 97.2992C151.8 95.2992 155 96.3992 159 98.5992C163 100.899 164.6 102.599 161.1 104.599C157.5 106.699 154.1 105.399 150.7 103.399Z" fill="white"/>
<path fill-rule="evenodd" clip-rule="evenodd" d="M174.6 84.5994C178.6 86.7994 182.7 88.9994 186.7 91.2994C187.6 90.7994 188.4 90.2994 189.3 89.7994C184 86.9994 178.8 84.1994 173.5 81.3994C172.3 82.0994 171.1 82.7994 169.9 83.3994C172.6 86.4994 175.4 89.4994 178.2 92.5994C178.7 92.9994 179.2 93.2994 179.6 93.6994L179.5 93.7994C178.9 93.4994 178.3 93.1994 177.7 92.9994C172.4 91.3994 167 89.7994 161.7 88.1994C160.5 88.8994 159.3 89.5994 158 90.2994C162.9 93.2994 167.8 96.3994 172.6 99.3994C173.3 98.9994 174 98.5994 174.8 98.1994C171 95.8994 167.1 93.5994 163.2 91.1994C162.6 90.8994 162 90.5994 161.4 90.2994L161.5 90.1994C167.5 91.9994 173.4 93.6994 179.4 95.4994C180.3 94.9994 181.2 94.4994 182.1 93.8994C179.1 90.4994 176 87.0994 172.9 83.6994C172.9 83.6994 173 83.6994 173 83.5994C173.6 83.8994 174.1 84.2994 174.6 84.5994Z" fill="white"/>
<path fill-rule="evenodd" clip-rule="evenodd" d="M184.2 74.7993C179.4 77.5993 180.9 80.6993 185.5 83.3993C190.4 86.2993 195.3 86.7993 200.1 83.9993C202.8 82.4993 204.2 81.0993 204.7 80.0993C203.9 79.8993 203 79.6993 202.2 79.3993C201.7 80.3993 200.5 81.7993 198.4 82.9993C196.5 84.0993 193 84.5993 189 82.2993C188.8 82.1993 188.5 81.9993 188.3 81.8993C191.6 79.9993 195 77.9993 198.3 76.0993C192.6 72.7993 188.9 71.9993 184.2 74.7993ZM194.4 76.5993C191.9 78.0993 189.3 79.4993 186.8 80.9993C184.2 79.4993 182.9 77.3993 185.8 75.6993C188.7 73.9993 191.2 74.7993 194.4 76.5993Z" fill="white"/>
<path fill-rule="evenodd" clip-rule="evenodd" d="M212.1 76.5998C209.7 75.1998 207.2 73.7998 204.8 72.3998C207.2 70.9998 209.5 69.6998 212 68.2998C214.5 69.6998 216.9 71.0998 219.3 72.4998C220.1 71.9998 220.9 71.5998 221.8 71.0998C216.7 68.1998 211.7 65.1998 206.6 62.2998C205.7 62.7998 204.9 63.1998 204.1 63.6998C206.2 64.8998 208.3 66.0998 210.4 67.2998C208 68.6998 205.6 69.9998 203.2 71.3998C201.1 70.1998 199 68.9998 196.9 67.7998C196.1 68.2998 195.3 68.6998 194.4 69.1998C199.5 72.0998 204.5 75.0998 209.6 77.9998C210.5 77.4998 211.3 77.0998 212.1 76.5998Z" fill="white"/>
<path fill-rule="evenodd" clip-rule="evenodd" d="M222.7 54.1992C221.3 54.2992 218.6 54.8992 216.4 56.1992C211.7 58.8992 213.4 61.8992 218 64.4992C222.6 67.1992 227.6 67.9992 232.3 65.2992C235 63.7992 235.7 62.2992 235.8 61.6992C234.9 61.4992 234.1 61.1992 233.3 60.9992C233.1 61.6992 232.6 63.0992 230.5 64.2992C228 65.6992 224.9 65.3992 220.7 62.9992C216.5 60.5992 215.6 58.7992 218.3 57.2992C220.4 56.0992 222.7 55.7992 224 55.6992C223.5 55.1992 223.1 54.6992 222.7 54.1992Z" fill="white"/>
<path fill-rule="evenodd" clip-rule="evenodd" d="M242.9 58.7998C240.5 57.3998 238.1 55.9998 235.7 54.6998C236 54.4998 236.3 54.2998 236.7 54.0998C237.9 53.3998 239.5 53.1998 241 53.5998C242.2 53.8998 243.3 54.1998 244.5 54.4998C246.8 55.0998 248.6 55.2998 250.1 54.7998C250.8 54.5998 251.6 54.1998 252.3 53.7998C251.8 53.3998 251.3 53.0998 250.8 52.6998C250 53.1998 249.1 53.4998 247.7 53.1998C246.4 52.8998 245 52.5998 243.7 52.2998C241 51.6998 240.1 51.3998 238.9 51.8998C238.9 51.8998 238.8 51.8998 238.8 51.7998C239.7 51.0998 239.4 50.2998 238.5 48.9998C238.2 48.4998 237.9 48.0998 237.5 47.5998C236.7 46.4998 237.5 45.9998 238.1 45.5998C237.5 45.2998 236.9 44.9998 236.3 44.7998C235.4 45.2998 234.9 45.6998 234.6 46.1998C233.9 47.0998 234.2 47.9998 235 49.0998C235.3 49.4998 235.6 49.9998 236 50.3998C236.8 51.3998 236.2 52.3998 235 53.0998C234.7 53.2998 234.4 53.4998 234 53.6998C231.9 52.4998 229.8 51.2998 227.7 50.0998C226.9 50.5998 226.1 50.9998 225.3 51.4998C230.4 54.3998 235.4 57.3998 240.5 60.2998C241.3 59.7998 242.1 59.2998 242.9 58.7998Z" fill="white"/>
<path fill-rule="evenodd" clip-rule="evenodd" d="M257.4 50.3998C256.1 47.0998 254.9 43.8998 253.7 40.4998C253.3 39.8998 253 39.2998 252.6 38.5998H252.7C253.3 39.0998 254 39.4998 254.7 39.9998C258.1 41.9998 261.6 43.9998 265 45.9998C265.8 45.4998 266.5 45.0998 267.4 44.5998C262.3 41.6998 257.3 38.6998 252.2 35.7998C251.4 36.2998 250.6 36.6998 249.8 37.0998C251 40.2998 252.2 43.4998 253.4 46.6998C253.7 47.2998 254 47.9998 254.4 48.5998C254.3 48.5998 254.3 48.5998 254.3 48.5998C253.6 48.1998 253 47.6998 252.4 47.2998C249.1 45.3998 245.7 43.3998 242.3 41.4998C241.5 41.9998 240.7 42.3998 239.9 42.8998C245 45.7998 250 48.7998 255.1 51.6998C255.9 51.2998 256.7 50.8998 257.4 50.3998Z" fill="white"/>
<path fill-rule="evenodd" clip-rule="evenodd" d="M261 28.1996C264.4 26.1996 262.9 24.2996 262.6 24.0996C261.8 24.2996 261.1 24.3996 260.4 24.4996C260.6 25.0996 261.3 25.8996 259.2 27.0996C257.1 28.2996 255.6 27.8996 254.6 27.7996C254.4 28.2996 254.1 28.6996 253.8 29.0996C254.2 29.2996 257.6 30.1996 261 28.1996ZM274.3 40.6996C273.1 37.3996 271.8 34.1996 270.6 30.7996C270.3 30.1996 269.8 29.5996 269.5 28.8996C269.5 28.8996 269.6 28.8996 269.6 28.7996C270.2 29.2996 270.9 29.6996 271.6 30.1996C275 32.1996 278.5 34.1996 281.9 36.1996C282.7 35.6996 283.5 35.2996 284.3 34.7996C279.2 31.8996 274.2 28.8996 269.1 25.9996C268.3 26.4996 267.5 26.8996 266.8 27.2996C268 30.4996 269.2 33.6996 270.4 36.8996C270.7 37.4996 271 38.1996 271.4 38.7996C271.3 38.7996 271.3 38.7996 271.3 38.8996C270.7 38.4996 270 37.9996 269.4 37.5996C266.1 35.6996 262.7 33.6996 259.3 31.7996C258.5 32.2996 257.7 32.6996 256.9 33.0996C262 35.9996 267 38.9996 272.1 41.8996C272.8 41.5996 273.6 41.0996 274.3 40.6996Z" fill="white"/>
<path fill-rule="evenodd" clip-rule="evenodd" d="M179.3 142.6C174.8 140 170.4 137.5 166 134.9C168 133.7 170.1 132.6 172.1 131.4C171.5 131 170.8 130.7 170.2 130.3C167.3 132 164.5 133.6 161.6 135.2C166.7 138.1 171.7 141.1 176.8 144C177.7 143.6 178.5 143.1 179.3 142.6Z" fill="white"/>
<path fill-rule="evenodd" clip-rule="evenodd" d="M179.8 133.699C184.4 136.399 189.2 137.299 194.4 134.299C199.6 131.299 197.9 128.499 193.3 125.899C188.7 123.199 183.6 122.199 178.4 125.199C173.3 128.099 175.2 130.999 179.8 133.699ZM182.5 132.099C179.1 130.099 176.6 127.999 180.1 125.999C183.6 123.999 186.8 125.099 190.8 127.399C194.8 129.699 196.4 131.399 192.9 133.399C189.3 135.399 185.9 134.099 182.5 132.099Z" fill="white"/>
<path fill-rule="evenodd" clip-rule="evenodd" d="M200.9 113.8C199.5 113.9 196.9 114.5 194.6 115.8C190 118.5 191.6 121.4 196.2 124.1C200.8 126.8 205.8 127.6 210.5 125C213.2 123.4 213.8 121.9 214 121.3C213.2 121.1 212.4 120.9 211.5 120.6C211.3 121.3 210.8 122.6 208.6 123.9C206.1 125.3 203 125 198.8 122.6C194.6 120.2 193.6 118.4 196.3 116.9C198.4 115.7 200.7 115.4 202 115.3C201.7 114.8 201.3 114.3 200.9 113.8Z" fill="white"/>
<path fill-rule="evenodd" clip-rule="evenodd" d="M224 117.799C224.5 118.399 225 118.999 225.5 119.699C226 120.499 226 121.099 225.2 121.499C224.6 121.799 222.8 122.399 221.9 122.599C222.2 122.999 222.5 123.299 222.8 123.699C224 123.499 225.9 123.099 227 122.499C229 121.299 229 119.999 227.8 118.499C226.6 116.899 225.1 115.399 223.8 113.899C221 110.699 218.2 107.499 215.4 104.199C214.5 104.699 213.6 105.199 212.7 105.699C215.5 108.599 218.3 111.399 221.2 114.299C221.7 114.799 222.3 115.199 222.8 115.599C222.7 115.599 222.7 115.599 222.7 115.699C221.9 115.399 221.1 115.099 220.3 114.799C215.1 113.299 209.9 111.799 204.7 110.299C203.8 110.799 202.9 111.299 202 111.799C209.3 113.899 216.7 115.799 224 117.799Z" fill="white"/>
<path fill-rule="evenodd" clip-rule="evenodd" d="M251.2 106.3C249.2 105.1 247.2 103.8 245.3 102.5C244.6 102.9 243.9 103.3 243.1 103.8C238.6 101.2 234.1 98.6 229.6 96C226.5 97.8 223.3 99.6 220.2 101.4C224.5 104.1 231.1 108.1 231.8 110.3C231.3 110.6 230.8 110.9 230.3 111.2C232.4 112.4 234.5 113.6 236.5 114.8C237.2 114.4 237.9 114 238.5 113.6C237.1 112.7 235.7 111.8 234.2 110.9C237.6 108.9 241.1 106.9 244.5 104.9C246 105.8 247.5 106.6 249 107.5C249.7 107.1 250.4 106.7 251.2 106.3ZM224.1 101.2C225.7 100.3 227.3 99.3 228.9 98.4C232.8 100.7 236.7 102.9 240.6 105.2C238.4 106.5 236.3 107.7 234.1 108.9C233.5 107.4 227.8 103.3 224.1 101.2Z" fill="white"/>
<path fill-rule="evenodd" clip-rule="evenodd" d="M261.2 95.2996C257.8 93.2996 254.3 91.2996 250.9 89.2996C248.2 87.7996 244.7 86.8996 240.3 89.3996C237.5 90.9996 236.4 92.4996 235.9 93.4996C236.7 93.6996 237.5 93.9996 238.3 94.1996C238.8 93.1996 239.9 91.5996 242 90.3996C243.8 89.3996 246.1 89.3996 247.8 90.3996C248.6 90.8996 249.4 91.2996 250.3 91.7996C249.2 92.4996 248 93.0996 246.3 94.2996C243.3 96.3996 242.8 98.0996 245.7 99.7996C248.9 101.7 251.9 101 254.9 99.2996C256.9 98.0996 257.3 96.3996 257.3 95.2996C258.1 95.5996 258.8 95.8996 259.7 96.1996C260.2 95.8996 260.7 95.5996 261.2 95.2996ZM253.2 98.3996C251.5 99.3996 250.2 99.4996 248.3 98.3996C246.5 97.2996 246.5 96.5996 247.9 95.3996C249.3 94.2996 250.4 93.4996 251.6 92.6996C252.9 93.3996 254.2 94.1996 255.4 94.8996C255.5 95.7996 255.1 97.2996 253.2 98.3996Z" fill="white"/>
<path fill-rule="evenodd" clip-rule="evenodd" d="M272.2 96.2994C273 95.7994 273.8 95.3994 274.7 94.8994C272.1 93.3994 269.5 91.8994 267 90.3994C269.1 90.2994 271.3 89.8994 273.3 88.6994C278 85.9994 275.7 83.5994 271.1 80.8994C266.5 78.1994 262.1 76.6994 257.4 79.4994C255.4 80.6994 254.5 82.2994 254.6 83.6994C253.8 83.3994 253.1 83.0994 252.3 82.8994C251.7 83.1994 251.2 83.4994 250.6 83.8994C257.8 87.9994 265 92.1994 272.2 96.2994ZM271.6 87.6994C270.1 88.4994 267.8 89.2994 265.4 89.4994C262.3 87.6994 259.3 85.9994 256.2 84.1994C256.5 82.7994 257.6 81.3994 259.2 80.4994C261.3 79.2994 264.3 79.9994 268.5 82.3994C272.7 84.8994 273.7 86.4994 271.6 87.6994Z" fill="white"/>
<path fill-rule="evenodd" clip-rule="evenodd" d="M278.9 68.7998C277.5 68.8998 274.9 69.4998 272.6 70.7998C267.9 73.4998 269.6 76.3998 274.2 79.0998C278.8 81.7998 283.8 82.6998 288.5 79.9998C291.2 78.4998 291.8 76.8998 292 76.2998C291.1 76.0998 290.4 75.8998 289.5 75.5998C289.3 76.2998 288.8 77.5998 286.6 78.8998C284.1 80.2998 281 79.9998 276.8 77.5998C272.6 75.1998 271.6 73.3998 274.3 71.8998C276.5 70.6998 278.7 70.3998 280 70.2998C279.7 69.6998 279.3 69.2998 278.9 68.7998Z" fill="white"/>
<path fill-rule="evenodd" clip-rule="evenodd" d="M301.9 71.8994C297.4 69.2994 293 66.7994 288.6 64.1994C290.2 63.2994 291.7 62.3994 293.3 61.4994C292.7 61.0994 292 60.7994 291.4 60.3994C287.4 62.6994 283.4 64.9994 279.5 67.2994C280.1 67.6994 280.8 67.9994 281.4 68.3994C283 67.4994 284.5 66.5994 286.1 65.6994C290.5 68.2994 295 70.7994 299.4 73.3994C300.2 72.7994 301 72.2994 301.9 71.8994Z" fill="white"/>
<path fill-rule="evenodd" clip-rule="evenodd" d="M309.3 57.8C309.3 57.8 309.2 57.8 309.2 57.7C309.3 57.6 309.4 57.6 309.5 57.5C310.4 56.7 310.9 55.5 309.1 54.4C306.6 53 303.7 53.1 300.6 54.9C298.5 56.1 296.4 57.3 294.4 58.5C299.5 61.4 304.5 64.4 309.6 67.3C311.8 66 313.9 64.8 316.1 63.5C320.1 61.2 320 59.6 317.1 57.9C314.5 56.4 311.5 56.8 309.7 57.5C309.6 57.7 309.5 57.8 309.3 57.8ZM304.9 61.8C306.2 61.1 307.5 60.3 308.8 59.6C311.3 58.2 313.3 58.8 314.6 59.5C316 60.3 317 61.2 314.8 62.5C313.4 63.3 311.9 64.2 310.5 65C308.5 63.9 306.7 62.9 304.9 61.8ZM298.5 58.1C299.7 57.4 300.9 56.7 302.2 56C304.1 54.9 305.8 55.4 306.9 56.1C308 56.7 308.9 57.5 306.7 58.8C305.5 59.5 304.3 60.2 303.2 60.8C301.6 59.9 300.1 59 298.5 58.1Z" fill="white"/>
<path fill-rule="evenodd" clip-rule="evenodd" d="M315.5 45.9999C310.8 48.6999 312.2 51.8999 316.9 54.5999C321.8 57.3999 326.7 57.9999 331.5 55.1999C334.2 53.6999 335.5 52.2999 336.1 51.2999C335.2 51.0999 334.4 50.8999 333.6 50.5999C333.2 51.5999 331.9 52.9999 329.8 54.1999C327.9 55.2999 324.4 55.7999 320.4 53.4999C320.2 53.3999 319.9 53.1999 319.7 53.0999C323 51.1999 326.4 49.1999 329.7 47.2999C323.9 43.9999 320.3 43.2999 315.5 45.9999ZM325.7 47.7999C323.1 49.2999 320.6 50.6999 318.1 52.1999C315.5 50.6999 314.2 48.5999 317.1 46.8999C320 45.2999 322.5 45.9999 325.7 47.7999Z" fill="white"/>
<path fill-rule="evenodd" clip-rule="evenodd" d="M343.4 47.8996C340.9 46.4996 338.5 45.0996 336.1 43.6996C338.5 42.2996 340.9 40.8996 343.3 39.5996C345.8 40.9996 348.2 42.3996 350.6 43.7996C351.4 43.2996 352.2 42.8996 353 42.3996C347.9 39.4996 342.9 36.4996 337.8 33.5996C337 34.0996 336.2 34.4996 335.4 34.9996C337.5 36.1996 339.6 37.3996 341.7 38.5996C339.3 39.9996 336.9 41.3996 334.5 42.6996C332.4 41.4996 330.3 40.2996 328.2 39.0996C327.4 39.5996 326.6 39.9996 325.7 40.4996C330.8 43.3996 335.8 46.3996 340.9 49.2996C341.8 48.7996 342.6 48.2996 343.4 47.8996Z" fill="white"/>
<path fill-rule="evenodd" clip-rule="evenodd" d="M223 165.399C223.5 165.999 224.1 166.599 224.5 167.299C225 168.099 225.1 168.699 224.3 169.199C223.7 169.499 221.9 170.099 220.9 170.299C221.2 170.699 221.5 171.099 221.8 171.499C223 171.299 225 170.799 226 170.199C228 168.999 227.9 167.699 226.8 166.199C225.6 164.599 224.1 163.099 222.8 161.599C220 158.399 217.2 155.199 214.4 151.899C213.5 152.399 212.6 152.899 211.7 153.499C214.5 156.399 217.4 159.299 220.2 162.099C220.7 162.499 221.3 162.999 221.8 163.399L221.7 163.499C220.9 163.199 220.2 162.899 219.4 162.699C214.2 161.199 209 159.699 203.8 158.199C202.9 158.699 202 159.199 201.1 159.699C208.4 161.499 215.7 163.399 223 165.399Z" fill="white"/>
<path fill-rule="evenodd" clip-rule="evenodd" d="M235.4 157.3C232.9 155.9 230.5 154.5 228.1 153.1C230.5 151.7 232.8 150.4 235.2 149C237.7 150.4 240.1 151.8 242.5 153.2C243.3 152.7 244.1 152.3 245 151.8C239.9 148.9 234.9 145.9 229.8 143C228.9 143.5 228.1 144 227.3 144.4C229.4 145.6 231.5 146.8 233.6 148C231.2 149.4 228.8 150.8 226.5 152.1C224.4 150.9 222.3 149.7 220.2 148.5C219.3 149 218.5 149.4 217.7 149.9C222.8 152.8 227.9 155.8 232.9 158.7C233.7 158.2 234.5 157.7 235.4 157.3Z" fill="white"/>
<path fill-rule="evenodd" clip-rule="evenodd" d="M251.8 147.799C250.6 144.499 249.3 141.299 248.1 137.899C247.7 137.299 247.3 136.699 246.9 135.999C247 135.999 247 135.999 247.1 135.999C247.8 136.499 248.5 136.899 249.1 137.399C252.5 139.399 256 141.399 259.4 143.399C260.2 142.899 261 142.499 261.8 141.999C256.7 139.099 251.7 136.099 246.6 133.199C245.8 133.699 245.1 134.099 244.3 134.499C245.5 137.699 246.7 140.899 247.9 144.099C248.2 144.699 248.5 145.399 248.9 145.999H248.8C248.1 145.599 247.5 145.099 246.9 144.699C243.5 142.699 240.2 140.799 236.8 138.899C236 139.399 235.2 139.799 234.4 140.299C239.5 143.199 244.6 146.199 249.6 149.099C250.3 148.599 251.1 148.199 251.8 147.799Z" fill="white"/>
<path fill-rule="evenodd" clip-rule="evenodd" d="M266.2 129.8C266.2 129.8 266.1 129.8 266.1 129.7C266.2 129.6 266.3 129.6 266.4 129.5C267.3 128.6 267.8 127.5 265.9 126.4C263.4 125 260.5 125.1 257.4 126.9C255.3 128.1 253.2 129.3 251.2 130.5C256.3 133.4 261.4 136.4 266.4 139.3C268.6 138.1 270.7 136.8 272.9 135.6C276.9 133.3 276.8 131.7 273.9 130C271.3 128.5 268.2 128.9 266.5 129.6C266.5 129.6 266.4 129.7 266.2 129.8ZM261.7 133.7C263 133 264.3 132.2 265.6 131.5C268.1 130.1 270.1 130.7 271.4 131.4C272.8 132.2 273.9 133.1 271.6 134.4C270.2 135.2 268.7 136.1 267.3 136.9C265.4 135.9 263.6 134.8 261.7 133.7ZM255.4 130.1C256.6 129.4 257.8 128.7 259.1 128C261 126.9 262.7 127.5 263.8 128.1C264.8 128.7 265.8 129.5 263.6 130.7C262.4 131.4 261.2 132.1 260.1 132.7C258.5 131.9 256.9 131 255.4 130.1Z" fill="white"/>
<path fill-rule="evenodd" clip-rule="evenodd" d="M272.3 117.899C267.5 120.699 269 123.799 273.6 126.499C278.5 129.299 283.5 129.899 288.2 127.099C290.8 125.599 292.2 124.199 292.7 123.199C291.9 122.999 291.1 122.799 290.2 122.499C289.7 123.499 288.5 124.899 286.4 126.099C284.5 127.199 281 127.699 277 125.399C276.8 125.299 276.5 125.099 276.3 124.999C279.6 123.099 283 121.099 286.3 119.199C280.8 115.999 277.1 115.199 272.3 117.899ZM282.5 119.799C280 121.299 277.4 122.699 274.9 124.199C272.3 122.699 271 120.599 274 118.899C276.9 117.199 279.4 117.999 282.5 119.799Z" fill="white"/>
<path fill-rule="evenodd" clip-rule="evenodd" d="M304.2 124.9C305 124.4 305.8 124 306.7 123.5C304.1 122 301.5 120.5 299 119C301.2 118.9 303.3 118.5 305.3 117.3C310.1 114.6 307.8 112.2 303.1 109.5C298.5 106.8 294.1 105.3 289.4 108.1C287.4 109.3 286.5 110.9 286.6 112.3C285.8 112 285.1 111.7 284.3 111.5C283.7 111.8 283.2 112.1 282.6 112.4C289.8 116.6 297 120.7 304.2 124.9ZM303.6 116.3C302.1 117.1 299.8 118 297.4 118.1C294.3 116.3 291.3 114.6 288.2 112.8C288.5 111.4 289.6 110 291.1 109.1C293.2 107.9 296.3 108.6 300.5 111C304.7 113.5 305.7 115.1 303.6 116.3Z" fill="white"/>
<path fill-rule="evenodd" clip-rule="evenodd" d="M310.9 97.3994C309.5 97.4994 306.9 98.0994 304.6 99.3994C300 102.099 301.7 105.099 306.3 107.699C310.9 110.399 315.9 111.199 320.5 108.599C323.2 106.999 323.8 105.499 324 104.999C323.2 104.799 322.4 104.499 321.5 104.299C321.3 104.999 320.8 106.399 318.7 107.599C316.2 108.999 313.1 108.699 308.9 106.199C304.7 103.799 303.8 101.999 306.4 100.499C308.5 99.2994 310.8 98.9994 312.1 98.7994C311.7 98.2994 311.3 97.7994 310.9 97.3994Z" fill="white"/>
<path fill-rule="evenodd" clip-rule="evenodd" d="M330.9 102.1C329.7 98.7996 328.4 95.5996 327.2 92.2996C326.8 91.6996 326.4 91.0996 326 90.3996C326.1 90.3996 326.1 90.3996 326.2 90.3996C326.9 90.8996 327.6 91.2996 328.2 91.7996C331.6 93.7996 335.1 95.7996 338.5 97.7996C339.3 97.2996 340.1 96.8996 340.9 96.3996C335.8 93.4996 330.8 90.4996 325.7 87.5996C324.9 88.0996 324.1 88.4996 323.4 88.8996C324.6 92.0996 325.8 95.2996 327 98.4996C327.3 99.0996 327.6 99.7996 328 100.4H327.9C327.3 99.9996 326.6 99.4996 326 99.0996C322.6 97.0996 319.3 95.1996 315.9 93.2996C315.1 93.7996 314.3 94.1996 313.5 94.6996C318.6 97.5996 323.7 100.6 328.7 103.5C329.3 103 330.1 102.6 330.9 102.1Z" fill="white"/>
<path fill-rule="evenodd" clip-rule="evenodd" d="M351.1 90.5C346.7 87.9 342.2 85.4 337.8 82.8C339.4 81.9 340.9 81 342.5 80.1C341.9 79.7 341.3 79.4 340.6 79C336.6 81.3 332.7 83.6 328.7 85.9C329.3 86.3 330 86.6 330.6 87C332.2 86.1 333.7 85.2 335.3 84.3C339.8 86.9 344.2 89.4 348.6 92C349.4 91.4 350.2 91 351.1 90.5Z" fill="white"/>
<path fill-rule="evenodd" clip-rule="evenodd" d="M349.2 73.5998C344.4 76.2998 345.9 79.4998 350.6 82.1998C355.5 84.9998 360.4 85.5998 365.2 82.7998C367.8 81.2998 369.2 79.8998 369.8 78.8998C368.9 78.6998 368.1 78.4998 367.3 78.2998C366.8 79.2998 365.6 80.6998 363.5 81.8998C361.6 82.9998 358.1 83.4998 354.1 81.1998C353.9 81.0998 353.6 80.8998 353.4 80.7998C356.7 78.8998 360.1 76.8998 363.4 74.9998C357.7 71.5998 354 70.7998 349.2 73.5998ZM359.4 75.3998C356.8 76.8998 354.3 78.2998 351.8 79.7998C349.2 78.2998 348 76.1998 350.9 74.5998C353.8 72.7998 356.3 73.5998 359.4 75.3998Z" fill="white"/>
<path fill-rule="evenodd" clip-rule="evenodd" d="M379.9 73.7998C375.5 71.1998 371 68.6998 366.6 66.0998C368.2 65.1998 369.8 64.2998 371.4 63.3998C370.8 62.9998 370.2 62.6998 369.5 62.2998C365.5 64.5998 361.5 66.8998 357.6 69.1998C358.2 69.5998 358.9 69.8998 359.5 70.2998C361.1 69.3998 362.7 68.4998 364.2 67.5998C368.7 70.1998 373.1 72.6998 377.5 75.2998C378.3 74.7998 379.1 74.2998 379.9 73.7998Z" fill="white"/>
</svg>
